<?xml version="1.0" standalone="no"?>
<!DOCTYPE svg PUBLIC "-//W3C//DTD SVG 1.1//EN" "http://www.w3.org/Graphics/SVG/1.1/DTD/svg11.dtd" >
<svg xmlns="http://www.w3.org/2000/svg">
<metadata>
Created by FontForge 20120731 at Wed Sep 21 15:13:40 2016
 By admin
</metadata>
<defs>
<font id="iconfont" horiz-adv-x="1024" >
  <font-face 
    font-family="iconfont"
    font-weight="500"
    font-stretch="normal"
    units-per-em="1024"
    panose-1="2 0 6 3 0 0 0 0 0 0"
    ascent="896"
    descent="-128"
    x-height="792"
    bbox="0 -212 1091.23 896"
    underline-thickness="50"
    underline-position="-100"
    unicode-range="U+0078-E690"
  />
<missing-glyph horiz-adv-x="374" 
d="M34 0v682h272v-682h-272zM68 34h204v614h-204v-614z" />
    <glyph glyph-name=".notdef" horiz-adv-x="374" 
d="M34 0v682h272v-682h-272zM68 34h204v614h-204v-614z" />
    <glyph glyph-name=".null" horiz-adv-x="0" 
 />
    <glyph glyph-name="nonmarkingreturn" horiz-adv-x="341" 
 />
    <glyph glyph-name="x" unicode="x" horiz-adv-x="1001" 
d="M281 543q-27 -1 -53 -1h-83q-18 0 -36.5 -6t-32.5 -18.5t-23 -32t-9 -45.5v-76h912v41q0 16 -0.5 30t-0.5 18q0 13 -5 29t-17 29.5t-31.5 22.5t-49.5 9h-133v-97h-438v97zM955 310v-52q0 -23 0.5 -52t0.5 -58t-10.5 -47.5t-26 -30t-33 -16t-31.5 -4.5q-14 -1 -29.5 -0.5
t-29.5 0.5h-32l-45 128h-439l-44 -128h-29h-34q-20 0 -45 1q-25 0 -41 9.5t-25.5 23t-13.5 29.5t-4 30v167h911zM163 247q-12 0 -21 -8.5t-9 -21.5t9 -21.5t21 -8.5q13 0 22 8.5t9 21.5t-9 21.5t-22 8.5zM316 123q-8 -26 -14 -48q-5 -19 -10.5 -37t-7.5 -25t-3 -15t1 -14.5
t9.5 -10.5t21.5 -4h37h67h81h80h64h36q23 0 34 12t2 38q-5 13 -9.5 30.5t-9.5 34.5q-5 19 -11 39h-368zM336 498v228q0 11 2.5 23t10 21.5t20.5 15.5t34 6h188q31 0 51.5 -14.5t20.5 -52.5v-227h-327z" />
    <glyph glyph-name="uniE600" unicode="&#xe600;" 
d="M528 845q-40 0 -68.5 -28.5t-28.5 -68.5t28.5 -68.5t68.5 -28.5t68.5 28.5t28.5 68.5t-28.5 68.5t-68.5 28.5zM565 741l-33 -30q-5 -5 -11 1l-30 32q-5 6 1 11l32 30q6 5 11 0l30 -33q5 -5 0 -11zM519 386q5 4 12.5 4t11.5 -5l65 -70q5 -5 4.5 -12t-5.5 -12l-70 -64
q-5 -5 -12 -5t-12 5l-64 70q-5 5 -5 12t6 12zM528 489v-1l1 1h-1zM672 617l-5 3h-1l-6 3q-1 0 -3 1q-1 1 -4 2q-8 2 -14 5q-5 0 -9 1q-30 1 -52 -19.5t-23 -50.5q-1 -22 10 -40.5t30 -27.5q6 -3 12 -5q57 -24 91 -76.5t32 -116.5q-3 -59 -36 -106.5t-85 -70.5
q-42 -18 -89 -17q-83 4 -139.5 65t-53.5 145q2 59 35.5 106.5t85.5 70.5h1q10 3 19 7q37 20 38 61q1 30 -19 52t-50 23h-11q-7 -1 -14 -3q-3 -1 -5 -2q-3 -1 -7 -3q-94 -37 -153.5 -120t-63.5 -187q-3 -93 40 -174.5t120.5 -130.5t171.5 -53t175 39t130 121t53 171
q4 107 -51.5 195.5t-149.5 131.5z" />
    <glyph glyph-name="uniE601" unicode="&#xe601;" 
d="M886 491h-268v269q0 37 -26.5 63.5t-64 26.5t-64 -26.5t-26.5 -63.5v-269h-268q-38 0 -64 -26.5t-26 -64t26 -63.5t64 -26h268v-269q0 -37 26.5 -63.5t64 -26.5t64 26.5t26.5 63.5v269h268q38 0 64 26t26 63.5t-26 64t-64 26.5z" />
    <glyph glyph-name="uniE602" unicode="&#xe602;" 
d="M844 822h-664q-23 0 -39 -16.5t-16 -39.5v-774q0 -23 16 -39t39 -16h664q23 0 39 16t16 39v774q0 23 -16 39.5t-39 16.5zM235.5 766q22.5 0 39 -16t16.5 -39t-16.5 -39t-39 -16t-39 16t-16.5 39t16.5 39t39 16zM844 -8h-664v608h664v-608zM788.5 656q-22.5 0 -39 16
t-16.5 39t16.5 39t39 16t39 -16t16.5 -39t-16.5 -39t-39 -16zM235 462.5q0 11.5 8.5 19.5t19.5 8h498q11 0 19.5 -8t8.5 -19.5t-8.5 -19.5t-19.5 -8h-498q-11 0 -19.5 8t-8.5 19.5zM235 296.5q0 11.5 8.5 19.5t19.5 8h498q11 0 19.5 -8t8.5 -19.5t-8.5 -19.5t-19.5 -8h-498
q-11 0 -19.5 8t-8.5 19.5zM235 130q0 12 8.5 20t19.5 8h498q11 0 19.5 -8t8.5 -19.5t-8.5 -19.5t-19.5 -8h-498q-11 0 -19.5 8t-8.5 19z" />
    <glyph glyph-name="uniE603" unicode="&#xe603;" 
d="M963 664q-3 3 -8 7q-10 6 -22 3.5t-20 -12.5q-22 -30 -100 -134.5t-120 -161.5q-1 -2 -3 -5q9 1 16 -4l48 -33q7 -5 9 -14q2 2 4 5q34 52 102 155t101 152q7 11 5 23.5t-12 18.5zM748 315l-48 33q-7 5 -14 1l-84 -52q-9 -5 -6 -15q7 -21 1.5 -61t-14.5 -69q-2 -9 5.5 -14
t14.5 0q25 18 60.5 37t57.5 20q10 0 12 10l20 97q2 8 -5 13zM710 219q-29 -5 -75 -31h-1q-2 -1 -2 -2l39 56q9 0 14 7q9 13 -4 22t-22 -4q-5 -8 -1 -16l-39 -55v2v1q9 52 4 81l69 43l34 -24zM697.5 143q-10.5 0 -18 -7.5t-7.5 -17.5v-40h-542v645h542v-270q0 -10 7.5 -17.5
t18 -7.5t17.5 7.5t7 17.5v295q0 11 -7 18.5t-18 7.5h-592q-10 0 -17.5 -7.5t-7.5 -18.5v-695q0 -10 7.5 -17.5t17.5 -7.5h592q11 0 18 7.5t7 17.5v65q0 10 -7 17.5t-17.5 7.5zM219 650h364v-42h-364v42zM219 538h364v-42h-364v42zM219 425h364v-41h-364v41zM219 201h310v-42
h-310v42zM219 313h310v-41h-310v41z" />
    <glyph glyph-name="uniE604" unicode="&#xe604;" 
d="M970 817v-839q0 -10 -7.5 -17.5t-18.5 -7.5h-838q-10 0 -17.5 7.5t-7.5 17.5v839q0 10 7.5 17.5t17.5 7.5h323q10 0 17.5 -7.5t7.5 -17.5v-324q0 -11 -7.5 -18.5t-17.5 -7.5h-89q-10 0 -13.5 -6t3.5 -14l22 -31l158 -217l2 -1q6 -7 14.5 -6.5t13.5 7.5l181 248q6 8 3 14
t-13 6h-88q-11 0 -18.5 7.5t-7.5 18.5v324q0 10 7.5 17.5t18.5 7.5h321q11 0 18.5 -7.5t7.5 -17.5z" />
    <glyph glyph-name="uniE605" unicode="&#xe605;" 
d="M899 740h-143v-72v179h-71v-107h-321v-72v179h-71v-179v72h-143q-15 0 -25.5 -10.5t-10.5 -25.5v-71h821v71q0 15 -10.5 25.5t-25.5 10.5zM114 -9q0 -15 10.5 -25.5t25.5 -10.5h749q15 0 25.5 10.5t10.5 25.5v606h-821v-606zM721 526h142v-143h-142v143zM721 347h142
v-142h-142v142zM721 169h142v-143h-142v143zM542 526h143v-143h-143v143zM542 347h143v-142h-143v142zM542 169h143v-143h-143v143zM364 526h143v-143h-143v143zM364 347h143v-142h-143v142zM364 169h143v-143h-143v143zM186 526h142v-143h-142v143zM186 347h142v-142h-142
v142zM186 169h142v-143h-142v143z" />
    <glyph glyph-name="uniE606" unicode="&#xe606;" 
d="M226 243h241q9 0 14.5 6t5.5 14t-5.5 14t-14.5 6h-241q-8 0 -14 -6t-6 -14t6 -14t14 -6zM588 163h80q8 0 14 5.5t6 14.5v80q0 8 -6 14t-14 6h-80q-9 0 -14.5 -6t-5.5 -14v-80q0 -9 5.5 -14.5t14.5 -5.5zM929 765h-642q-17 0 -29 -12t-12 -28v-61q0 -8 6 -14t14.5 -6
t14.5 6t6 14v61h642v-482h-60q-8 0 -14 -6t-6 -14.5t6 -14t14 -5.5h60q17 0 28.5 11.5t11.5 28.5v482q0 16 -11.5 28t-28.5 12zM226 163h161q8 0 14 5.5t6 14t-6 14.5t-14 6h-161q-8 0 -14 -6t-6 -14.5t6 -14t14 -5.5zM768 604h-642q-17 0 -28.5 -11.5t-11.5 -28.5v-482
q0 -16 11.5 -28t28.5 -12h642q17 0 29 12t12 28v482q0 17 -12 28.5t-29 11.5zM768 82h-642v281h642v-281zM768 484h-642v80h642v-80z" />
    <glyph glyph-name="uniE607" unicode="&#xe607;" 
d="M375 627h264l5 5l14 14q10 10 18.5 20t17 23.5t12.5 25t2 23.5t-12 20q-15 15 -44 10t-54.5 -17t-52.5 -23.5t-38 -10.5q-11 -1 -38.5 10.5t-52.5 23.5t-54 17t-44 -10q-13 -12 -12.5 -28.5t11.5 -34.5t24 -33t23 -25zM389 603q-10 0 -17 -6.5t-7 -16.5t7 -17t17 -7h236
q10 0 17 7t7 16.5t-7 16.5t-17 7h-236zM755 690h47q2 2 5 4.5t11.5 11t15.5 17t14 20t10 21t1.5 19.5t-9.5 16q-9 8 -20.5 9.5t-27 -3t-27 -9t-28.5 -12.5q17 -23 17 -51q0 -20 -9 -43zM811 651q0 8 -6 13.5t-14 5.5h-45q-11 -20 -27 -39h72q8 0 14 6t6 14zM315 553
q-5 14 -5 27q0 14 5 28l-1 2q-1 1 -2 1h-61q-70 -51 -118 -146.5t-48 -171.5q0 -62 40 -89q14 91 64.5 187.5t125.5 161.5zM251 690h8q-9 23 -9 43q0 37 28 63q-53 22 -75 3q-11 -10 -10 -23.5t10 -28.5t20 -28t19 -21zM802 611h-100q-1 0 -2 -1l-1 -2q5 -14 5 -28
q0 -13 -5 -27q78 -68 129.5 -170.5t62.5 -194.5q38 10 57.5 35t19.5 70q0 76 -47.5 171.5t-118.5 146.5zM639 532h-264q-85 -61 -142 -176t-57 -205q0 -42 13.5 -69.5t42 -42t61 -20.5t80.5 -7h216q42 0 69 1t58.5 5.5t51 13.5t37 24t25.5 39t8 56q0 90 -57.5 205
t-141.5 176zM646 248q11 0 19 -8t8 -19t-8 -19t-19 -8h-92v-125q0 -11 -8 -19t-19.5 -8t-19 8t-7.5 19v125h-92q-12 0 -20 8t-8 19t8 19t20 8h92v32h-92q-12 0 -20 8t-8 19.5t8 19.5t20 8h88l-77 96q-7 9 -6 20t10 18.5t20 6t18 -10.5l66 -82l65 82q7 9 18.5 10.5t20 -6
t10 -18.5t-5.5 -20l-78 -96h89q11 0 19 -8t8 -19.5t-8 -19.5t-19 -8h-92v-32h92zM262 670q-8 0 -13.5 -5.5t-5.5 -14t5.5 -14t13.5 -5.5h33q-16 20 -27 39h-6z" />
    <glyph glyph-name="uniE608" unicode="&#xe608;" 
d="M880 410q-22 0 -37.5 -15.5t-15.5 -37.5q0 -124 -88 -212t-212 -88t-211.5 88t-87.5 212t87.5 211.5t211.5 87.5v-88l212 141l-212 141v-88q-110 0 -203 -54.5t-147.5 -147.5t-54.5 -203t54.5 -203.5t147.5 -148t203 -54.5t203.5 54.5t148 148t54.5 203.5
q0 22 -15.5 37.5t-37.5 15.5zM621 369q27 29 56.5 68.5t45.5 64.5l16 26q-102 -41 -175 -91q-12 2 -21 1q-29 -4 -47.5 -26.5t-14.5 -51.5q2 -20 15 -36q1 -1 1 -2q25 -29 62 -24q27 3 44.5 23.5t17.5 47.5z" />
    <glyph glyph-name="uniE609" unicode="&#xe609;" 
d="M107 155h337q11 0 19.5 6.5t8.5 14.5v42q0 9 -8.5 15t-19.5 6h-337q-11 0 -19.5 -6t-8.5 -15v-42q0 -8 8.5 -14.5t19.5 -6.5zM107 43h337q11 0 19.5 6t8.5 15v42q0 9 -8.5 15t-19.5 6h-337q-11 0 -19.5 -6t-8.5 -15v-42q0 -9 8.5 -15t19.5 -6zM107 267h337q11 0 19.5 6.5
t8.5 14.5v42q0 9 -8.5 15t-19.5 6h-337q-11 0 -19.5 -6t-8.5 -15v-42q0 -8 8.5 -14.5t19.5 -6.5zM526 278q2 9 2 10v42q0 33 -24.5 55t-59.5 22h-113q0 58 41.5 99t99.5 41t99 -41t41 -99q0 -43 -24 -77.5t-62 -51.5zM79 659h785v-504h-340q4 12 4 21v35h168q0 47 32.5 79.5
t79.5 32.5v168q-47 0 -79.5 33t-32.5 79h-449q0 -46 -32.5 -79t-79.5 -33v-84h-28q-13 0 -28 -4v256zM976 771v-560h-56v504h-785v56h841z" />
    <glyph glyph-name="uniE60A" unicode="&#xe60a;" 
d="M136 460h771q24 0 41 17.5t17 41.5q0 21 -14 38h1l-2 2q-6 6 -14 11l-261 207q-2 1 -4.5 2.5t-8.5 4t-10.5 2t-8.5 -7t-4 -19.5v-181h-503q-24 0 -41.5 -17t-17.5 -41.5t17.5 -42t41.5 -17.5zM907 343h-771q-24 0 -41.5 -17t-17.5 -42q0 -21 14 -37l2 -2q6 -7 14 -12
l261 -207q1 -1 3.5 -2.5t9 -4t11 -1.5t8.5 7.5t4 19.5v180h503q24 0 41 17.5t17 42t-17 41.5t-41 17z" />
    <glyph glyph-name="uniE60B" unicode="&#xe60b;" 
d="M530 -46q-91 0 -173.5 35.5t-142 95.5t-95 142.5t-35.5 173t35.5 173.5t95 142.5t142 95t173.5 35.5t173.5 -35.5t142.5 -95t95 -142.5t35 -173.5t-35 -173t-95 -142.5t-142.5 -95.5t-173.5 -35.5zM530 813q-112 0 -207 -55t-150 -150t-55 -207t55 -207t150 -150t207 -55
t207 55t150 150t55 207t-55 207t-150 150t-207 55zM446 575l36 -11q-3 -6 -10 -18q-6 -11 -11 -18h371v-34h-389q-31 -52 -70 -104v-298h-36v257q-57 -62 -94 -94q-2 6 -10 16l-13 13q101 83 184 210h-161v34h179q13 23 24 47zM638 709h33v-57h169v-33h-169v-52h-33v52h-195
v-44h-36v44h-171v33h171v57h36v-57h195v57zM467 393v31h326v-36l-127 -81v-20h174v-32h-174v-88q3 -70 -67 -67q-21 -3 -96 -3q0 6 -5 21q-3 10 -3 16q34 -3 91 -3q49 -3 47 36v88h-213v32h213v36l114 70h-280z" />
    <glyph glyph-name="uniE60C" unicode="&#xe60c;" 
d="M524 290l185 222h-111v332h-148v-332h-110zM770 770h-98v-74h50l168 -369h-201l-73 -111h-183l-74 111h-201l168 369h51v74h-98l-198 -435v-378h887v378z" />
    <glyph glyph-name="uniE60D" unicode="&#xe60d;" 
d="M928 492l-42 10q-13 48 -38 91l22 38q14 27 0 41l-82 82q-7 7 -18 7t-23 -7l-37 -23q-43 25 -91 38l-11 42q-4 13 -11 21t-18 8h-116q-21 0 -29 -29l-10 -42q-48 -13 -91 -38l-37 23q-12 7 -24 7q-10 0 -18 -7l-82 -82q-14 -14 0 -41l23 -38q-25 -43 -38 -91l-42 -10
q-29 -7 -29 -29v-116q0 -20 29 -29l42 -11q13 -48 38 -91l-23 -37q-15 -26 0 -41l82 -82q7 -7 17.5 -7t24.5 7l37 22q43 -25 91 -37l10 -43q8 -29 29 -29h116q20 0 29 29l11 43q48 12 91 37l37 -22q14 -7 24 -7t17 7l82 82q16 15 0 41l-22 37q25 43 38 91l42 11q29 9 29 29
v116q0 22 -29 29zM917 356l-41 -10q-22 -6 -28 -29q-12 -42 -34 -81q-12 -20 0 -40l22 -37l-69 -69l-1 1l-36 21q-9 6 -20 6t-20 -5q-38 -23 -81 -34q-23 -6 -28 -29l-11 -41h-98l-10 41q-6 23 -28 29q-43 11 -81 34q-9 5 -20 5t-20 -6l-37 -21v-1l-69 69l22 37q12 20 0 40
q-22 39 -34 81q-6 23 -29 29l-40 10h-1v98l41 10q23 6 29 28q12 43 34 82q12 20 0 40l-22 36l69 69l37 -22q9 -5 20 -5t20 5q38 22 81 34q22 6 28 28l10 42h98v-1l11 -41q5 -22 28 -28q42 -12 81 -34q9 -5 20 -5t20 5l37 22l69 -69l-22 -36q-12 -20 0 -40q22 -39 34 -82
q6 -22 28 -28l41 -10v-98zM521.5 642q-98.5 0 -168 -69.5t-69.5 -168t69.5 -168t168 -69.5t168 69.5t69.5 168t-69.5 168t-168 69.5zM521.5 603q49.5 0 92.5 -23t70 -62l-105 -59q-24 25 -57.5 25t-57.5 -25l-105 59q27 39 70 62t92.5 23zM502 208q-76 7 -127.5 63.5
t-51.5 133.5q0 41 17 78l105 -58q-3 -11 -3 -20q0 -28 17 -49t43 -28v-120zM482 404.5q0 16.5 11.5 28t28 11.5t28 -11.5t11.5 -28t-11.5 -28t-28 -11.5t-28 11.5t-11.5 28zM719 405q0 -77 -51 -133.5t-127 -63.5v120q26 7 43 28t17 49q0 9 -3 20l105 58q16 -37 16 -78z" />
    <glyph glyph-name="uniE60E" unicode="&#xe60e;" 
d="M82 159l62 121q0 8 5.5 13t13.5 5h111q8 0 13.5 -5t5.5 -13l62 -121q0 -8 -6 -13.5t-14 -5.5h-233q-8 0 -14 5.5t-6 13.5zM834 341q0 -8 -5.5 -13.5t-13.5 -5.5h-234q-8 0 -13.5 5.5t-5.5 13.5l61 121q0 8 6 13t14 5h110q8 0 14 -5t6 -13zM610 646l62 -121q0 -8 -6 -13.5
t-14 -5.5h-233q-8 0 -14 5.5t-6 13.5l62 121q0 8 5.5 13t13.5 5h111q8 0 13.5 -5t5.5 -13zM508 341q0 -8 -5.5 -13.5t-13.5 -5.5h-234q-8 0 -13.5 5.5t-5.5 13.5l61 121q0 8 6 13t14 5h110q8 0 14 -5t6 -13zM381 159l62 121q0 8 5.5 13t13.5 5h111q8 0 13.5 -5t5.5 -13
l62 -121q0 -8 -6 -13.5t-14 -5.5h-233q-8 0 -14 5.5t-6 13.5zM698 159l62 121q0 8 5.5 13t13.5 5h111q8 0 13.5 -5t5.5 -13l62 -121q0 -8 -6 -13.5t-14 -5.5h-233q-8 0 -14 5.5t-6 13.5z" />
    <glyph glyph-name="uniE60F" unicode="&#xe60f;" 
d="M968 135l-5 13q-8 24 -30 45t-46 27l-117 32q-24 7 -53.5 -0.5t-46.5 -25.5l-42 -42q-116 31 -200.5 115.5t-115.5 200.5l42 42q18 17 25.5 46.5t1.5 53.5l-32 117q-7 23 -28 45.5t-45 30.5l-13 5q-23 7 -52 0.5t-47 -24.5l-63 -63q-5 -5 -9.5 -16t-6.5 -19l-2 -8
q-2 -151 55 -290.5t163 -246.5q106 -106 245.5 -163t289.5 -55q1 0 9.5 2t19.5 6.5t16 9.5l63 63q18 18 24.5 47t-0.5 52v0z" />
    <glyph glyph-name="uniE610" unicode="&#xe610;" 
d="M527.5 356q-36.5 0 -61.5 -10t-37 -28.5t-17 -38t-5 -44.5q0 -49 13 -131t27 -111q20 -38 40 -40h81q2 0 6 1t14.5 11t19.5 28q14 29 27 111t13 131q0 25 -5 44.5t-17 38t-37 28.5t-61.5 10zM572 11q-6 -12 -12 -18h-65q-6 6 -12 18q-11 22 -23.5 99.5t-12.5 124.5
q0 44 18 62t62.5 18t62.5 -18t18 -62q0 -47 -12.5 -124.5t-23.5 -99.5zM527.5 839q-98.5 0 -182 -48.5t-132 -132t-48.5 -182.5q0 -106 57 -194.5t150 -132.5q-2 26 -4 48q-74 42 -118.5 116.5t-44.5 162.5t43.5 162t117.5 117.5t161.5 43.5t162 -43.5t117.5 -117.5t43 -162
t-44.5 -162.5t-118.5 -116.5q-1 -22 -4 -48q93 45 150 133t57 194q0 99 -48.5 182.5t-132 132t-182 48.5zM749 476q0 92 -65 157t-156.5 65t-156.5 -65t-65 -157q0 -98 74 -165q8 21 21 36q-55 53 -55 129q0 75 53 128.5t128.5 53.5t128.5 -53.5t53 -128.5q0 -77 -56 -131
q12 -15 21 -35q75 67 75 166zM608 476.5q0 33.5 -23.5 57t-57 23.5t-57 -23.5t-23.5 -57t23.5 -57t57 -23.5t57 23.5t23.5 57zM487 476q0 17 12 29t28.5 12t28.5 -12t12 -28.5t-12 -28.5t-28.5 -12t-28.5 12t-12 28z" />
    <glyph glyph-name="uniE611" unicode="&#xe611;" 
d="M937 93q-41 0 -76.5 41.5t-56.5 112.5t-21 153v112q0 86 -53.5 152.5t-137.5 87.5q6 13 6 27q0 28 -20.5 48t-49 20t-49 -20t-20.5 -48q0 -14 6 -27q-83 -21 -137 -87.5t-54 -152.5v-112q0 -82 -21 -153t-56 -112.5t-76 -41.5q-11 0 -19 -8t-8 -19t8 -18.5t19 -7.5h298
q10 -37 40 -61.5t69.5 -24.5t70 24.5t39.5 61.5h299q11 0 19 7.5t8 18.5t-8 19t-19 8zM528.5 795q6.5 0 11.5 -4.5t5 -11.5q0 -8 -8 -11.5t-16 0t-8 11.5q0 7 4.5 11.5t11 4.5zM529 7q-38 0 -55 33h110q-17 -33 -55 -33zM617 93h-176h-211q45 47 71.5 128.5t26.5 178.5v112
q0 82 59 139.5t142 57.5t142 -57.5t59 -139.5v-112q0 -97 26.5 -178.5t71.5 -128.5h-211z" />
    <glyph glyph-name="uniE612" unicode="&#xe612;" 
d="M835.5 715q-63.5 63 -144.5 96t-167 33t-166.5 -33t-144.5 -96q-63 -64 -95.5 -145.5t-32.5 -168.5q0 -85 33 -165t95 -143q64 -63 144.5 -96t166.5 -33h1q86 0 166.5 33t144 96t96 144t32.5 167t-32.5 167t-96 144zM782.5 145.5q-52.5 -52.5 -119.5 -79.5t-138.5 -27
t-138.5 27t-120 80q-52 52 -79 118t-27 137q0 72 27 140t79 121q53 52 120 79.5t138.5 27.5t138.5 -27.5t119.5 -80t79.5 -119.5t27 -138.5t-27 -138.5t-79.5 -119.5zM805 488q-21 71 -73 123q-10 9 -19 0t0 -18q47 -47 66 -111q-28 -14 -28 -45q0 -18 11.5 -32t28.5 -18
q-7 -101 -78 -172q-78 -78 -188.5 -78t-188.5 78q-5 4 -10 10q5 8 5 17q0 15 -10.5 25.5t-24.5 10.5q-3 0 -7 -1q-24 45 -30 96q17 5 28 18.5t11 31.5q0 16 -9 29t-23 19q14 51 46 94l45 -46q-35 -52 -35 -115q0 -84 59 -144q27 -26 61 -42v-1q0 -22 15 -37t36 -15
q18 0 31.5 10.5t18.5 26.5q73 6 125 58q59 60 59 144t-59 143q-9 9 -18.5 0t-0.5 -18q52 -52 52 -125t-52 -125q-44 -44 -106 -51q-4 17 -18 28.5t-32 11.5q-28 0 -43 -24q-28 13 -51 35q-51 52 -51 125q0 52 28 96l95 -94v-1q0 -21 15 -36t36 -15t36.5 15t15.5 36
q0 20 -14 35t-34 16l-188 188q-11 11 -26.5 11t-26.5 -11t-11 -26.5t11 -26.5l8 -8q-38 -49 -53 -109q-19 -2 -32 -16.5t-13 -34.5q0 -17 10.5 -31t27.5 -18q6 -59 34 -110q-7 -10 -7 -22q0 -14 10.5 -24.5t25.5 -10.5q5 0 10 2q6 -7 11 -12q86 -86 207.5 -86t207.5 86
q79 79 85 190q16 5 26.5 18.5t10.5 31.5q0 20 -14 35t-35 16z" />
    <glyph glyph-name="uniE613" unicode="&#xe613;" 
d="M783 165q0 -11 -8 -19t-20 -8h-603q-11 0 -19 8t-8 19v493q0 11 8 19t19 8h123v41h-123q-28 0 -48.5 -20t-20.5 -48v-493q0 -28 20.5 -48t48.5 -20h364q6 -11 26 -43.5t35.5 -58t17.5 -29.5q3 -6 9.5 -6t9.5 6q1 3 17 28.5t35.5 57.5t26.5 45h62q29 0 49 20t20 48v96h-41
v-96zM914 836h-509q-20 0 -33.5 -14t-13.5 -33v-334q0 -19 13.5 -32.5t33.5 -13.5h344q5 -7 18.5 -29.5t24 -39.5t12.5 -20q2 -4 6 -4t7 4q1 2 11.5 19.5t24 39t18.5 30.5h43q19 0 33 13.5t14 32.5v334q0 19 -14 33t-33 14zM933 455q0 -7 -5.5 -12.5t-13.5 -5.5h-509
q-8 0 -13.5 5.5t-5.5 12.5v334q0 8 5.5 13.5t13.5 5.5h509q8 0 13.5 -5.5t5.5 -13.5v-334zM495 671h343v42h-343v-42zM495 548h343v41h-343v-41z" />
    <glyph glyph-name="uniE614" unicode="&#xe614;" 
d="M889 725h-728q-33 0 -57 -24t-24 -57v-485q0 -34 24 -57.5t57 -23.5h728q34 0 57.5 23.5t23.5 57.5v485q0 33 -23.5 57t-57.5 24zM161 684h728q7 0 14 -2l-350 -350q-12 -12 -28 -12t-27 12l-350 350q7 2 13 2zM121 159v485q0 3 1 7l249 -250l-249 -249q-1 4 -1 7z
M889 118h-728q-6 0 -13 3l252 252l69 -70q24 -23 56.5 -23t55.5 23l70 70l252 -252q-7 -3 -14 -3zM930 159q0 -3 -1 -7l-250 249l250 250q1 -4 1 -7v-485z" />
    <glyph glyph-name="uniE615" unicode="&#xe615;" 
d="M939 428q-10 0 -17.5 -7t-7.5 -17q0 -106 -52 -195t-141 -141t-195 -52q-93 0 -176 42.5t-138 117.5h123q11 0 18 7t7 17.5t-7 17.5t-18 7h-172q-10 0 -17.5 -7t-7.5 -18v-160q0 -10 7.5 -17t17.5 -7t17 7t7 17v87q63 -76 152 -118.5t187 -42.5q89 0 170 35t139.5 93.5
t93.5 139.5t35 170q0 10 -7.5 17t-17.5 7zM526 792q81 0 155 -32t129 -91h-117q-11 0 -18 -7.5t-7 -17.5t7 -17.5t18 -7.5h172q10 0 17.5 7.5t7.5 17.5v160q0 10 -7.5 17.5t-17.5 7.5t-17.5 -7.5t-7.5 -17.5v-96q-61 64 -142.5 98.5t-171.5 34.5q-89 0 -169.5 -34.5
t-139.5 -93t-93.5 -139.5t-34.5 -170q0 -10 7 -17.5t17.5 -7.5t17.5 7.5t7 17.5q0 105 52 194.5t141.5 141.5t194.5 52zM656 398q10 0 17 7t7 17t-7 17.5t-17 7.5h-90l86 108q12 14 10 32t-16 29t-32 9t-29 -16l-65 -81l-65 81q-11 14 -28.5 16t-31.5 -9t-16 -29t9 -32
l87 -108h-90q-11 0 -18 -7.5t-7 -17.5t7 -17t18 -7h92v-50h-92q-11 0 -18 -7t-7 -17.5t7 -17.5t18 -7h92v-148q0 -18 12.5 -30.5t30.5 -12.5t30.5 12.5t12.5 30.5v148h93q10 0 17 7t7 17.5t-7 17.5t-17 7h-93v50h93z" />
    <glyph glyph-name="uniE616" unicode="&#xe616;" 
d="M978 401q0 -38 -26.5 -64t-63.5 -26h-716q-37 0 -63.5 26t-26.5 63.5t26.5 64t63.5 26.5h716q37 0 63.5 -26.5t26.5 -63.5z" />
    <glyph glyph-name="uniE617" unicode="&#xe617;" 
d="M731 485q-111 0 -191 -79.5t-80 -191.5q0 -114 79 -193t192 -79t192 79t79 193q3 112 -77 191.5t-194 79.5zM731 -11q-93 0 -159 66t-66 159t66 158.5t159 65.5t159 -65.5t66 -158.5t-66 -159t-159 -66zM231 648h388v-62h-388v62v0zM231 489h310v-62h-310v62zM231 307
h155v-62h-155v62v0zM421 20h-271v755h624v-217q7 0 32.5 -1.5t32.5 -1.5v251q0 12 -9.5 21.5t-21.5 9.5h-693q-12 0 -21.5 -9.5t-9.5 -21.5v-821q0 -12 9.5 -21.5t21.5 -9.5h345q-9 11 -21.5 35t-17.5 31v0zM886 264q-4 13 -23 19l-74 12l-35 66q-6 14 -23.5 14t-26.5 -14
l-35 -66l-74 -12q-16 0 -23 -19q-5 -15 8 -27l54 -50l-8 -78q0 -15 12 -27q11 -11 31 -4l66 35l66 -35q4 -4 11 -4q5 0 9.5 2t6.5 2q11 12 11 27l-11 74l54 50q4 12 4 35zM774 210q-8 -8 -8 -23l4 -35l-27 19q-4 4 -12 4t-12 -4l-31 -15l4 31q0 19 -8 23l-23 23l35 4
q12 0 19 15l16 31l15 -31q4 -7 20 -15l35 -4z" />
    <glyph glyph-name="uniE618" unicode="&#xe618;" 
d="M972 220l-428 405q-7 7 -16 7t-16 -7l-427 -405q-7 -6 -7 -15.5t6.5 -16t16 -6.5t15.5 6l412 390l412 -390q7 -6 16 -6t15.5 6.5t6.5 15.5t-6 16z" />
    <glyph glyph-name="uniE619" unicode="&#xe619;" 
d="M85 594l427 -406q7 -6 16 -6t16 6l428 406q6 6 6 15.5t-6.5 16t-15.5 6.5t-16 -7l-412 -390l-412 390q-6 7 -15.5 7t-16 -6.5t-6.5 -16t7 -15.5z" />
    <glyph glyph-name="uniE61A" unicode="&#xe61a;" 
d="M776 416l-400 422q-7 7 -16 7t-15.5 -6.5t-6.5 -16t7 -15.5l384 -406l-384 -406q-7 -7 -7 -16t6.5 -15.5t15.5 -6.5t16 6l400 422q6 7 6 16t-6 15z" />
    <glyph glyph-name="uniE61B" unicode="&#xe61b;" 
d="M360 401l381 403q7 6 7 15t-6.5 15.5t-15.5 6.5t-16 -6l-396 -419q-7 -6 -7 -15t7 -16l396 -418q7 -7 16 -7t15.5 6.5t6.5 15.5t-7 16z" />
    <glyph glyph-name="uniE61C" unicode="&#xe61c;" 
d="M257 11h-135v364l32 -32l103 103v-435zM486 11h-135v529h1l134 -134v-395zM709 11h-135v307l22 -22l113 113v-398zM939 11h-135v501l97 97v-88h38v-510zM607 364l-255 255l-208 -208l-62 62l270 270l255 -255l258 258h-79v44h187v-213h-44v109z" />
    <glyph glyph-name="uniE61D" unicode="&#xe61d;" 
d="M302 155q-11 5 -14 2.5t-5 -13.5q-3 -16 -26 -131q1 1 37 21q2 -14 -2 -44t0 -44q47 37 62 49q1 -7 4 -35q23 18 64 49.5t56 43.5q-151 88 -176 102zM381 11q-3 21 -4.5 24.5t-7.5 0.5q-1 -1 -19.5 -15.5t-30.5 -24.5q0 10 2 31t2.5 28.5t-0.5 13.5q-5 -1 -12 -3t-14 -3
q2 49 10 53.5t48 -19.5q12 -7 77 -45q-18 -20 -51 -41zM383 6zM826 623q2 83 -23 184q-1 1 -1.5 5t-1 5.5t-2 4.5t-3 4t-4 2t-6 0.5t-7.5 -1.5q-140 -40 -237.5 -112.5t-148.5 -194.5q-53 -125 -95 -313q-5 -24 18 -37q81 -45 150 -88q25 -15 47 3q97 75 168 163
q155 192 146 375zM652 261q-57 -69 -141 -137q-19 -15 -39 -3q-43 26 -127 74q-18 10 -14 30q38 173 91 294q45 102 128.5 164.5t202.5 101.5q11 4 16 0t7 -15q20 -85 18 -158q5 -94 -33 -179.5t-109 -171.5zM652 261zM580 549q-39 1 -67.5 -27.5t-28.5 -67.5t28 -67.5
t67 -28.5q38 -1 66.5 27.5t29 67.5t-27.5 67.5t-67 28.5zM581 383q-29 -1 -50 20.5t-22 50.5q0 28 20.5 48.5t48.5 21.5q29 0 50 -20.5t21 -49.5t-20 -49.5t-48 -21.5zM581 378zM756 300q-57 -123 -178 -199q0 -1 -6.5 -4.5t-7.5 -5t-4 -5t-2.5 -8t3.5 -10.5q28 -61 -9 -128
q173 17 261 151q35 54 29 110.5t-51 102.5q-9 9 -13.5 11.5t-10 -0.5t-11.5 -15zM790 261q26 -32 28.5 -71.5t-20.5 -77.5q-33 -54 -85 -90.5t-118 -46.5q12 53 -2 89q-2 4 -1.5 7t0.5 4.5t2.5 4t3.5 3t4 3.5l4 2q105 69 159 171q8 12 12.5 12t12.5 -10zM790 261zM373 553
q7 11 6.5 17.5t-5.5 9t-16 4.5q-64 15 -115 -9.5t-78 -83.5q-68 -146 9 -301q38 67 104 75q7 1 11 3t5.5 6t2 6t0.5 9v8q1 143 76 256zM321 562q13 -2 15.5 -6t-3.5 -17q-58 -99 -62 -225v-4v-5q0 -1 -0.5 -3.5t-1.5 -3.5l-2 -4q-1 -1 -3.5 -2t-5.5 -2q-38 -7 -77 -45
q-51 124 9 245q20 39 55 58t76 14zM321 562z" />
    <glyph glyph-name="uniE61E" unicode="&#xe61e;" 
d="M778 710h-499l-196 -214v-391h889v391zM294 674h468l162 -178h-272q0 -49 -37 -84.5t-87.5 -35.5t-87.5 35.5t-37 84.5h-272zM936 141h-817v320h253q13 -52 56.5 -86t99 -34t99 34t56.5 86h253v-320z" />
    <glyph glyph-name="uniE61F" unicode="&#xe61f;" 
d="M778 708h-499l-196 -213v-391h889v391zM294 673h468l162 -178h-272q0 -50 -37 -85t-87.5 -35t-87.5 35t-37 85h-272z" />
    <glyph glyph-name="uniE620" unicode="&#xe620;" 
d="M841 501q-47 0 -80 -32.5t-33 -78.5t33 -78.5t80 -32.5t80.5 32.5t33.5 78.5t-33.5 78.5t-80.5 32.5zM501 501q-47 0 -80.5 -32.5t-33.5 -78.5t33.5 -78.5t80.5 -32.5t80 32.5t33 78.5t-33 78.5t-80 32.5zM183 501q-47 0 -80.5 -32.5t-33.5 -78.5t33.5 -78.5t80.5 -32.5
t80 32.5t33 78.5t-33 78.5t-80 32.5z" />
    <glyph glyph-name="uniE621" unicode="&#xe621;" 
d="M954 565q0 108 -76.5 184.5t-184.5 76.5q-105 0 -181 -73q-76 73 -181 73q-108 0 -184.5 -76.5t-76.5 -184.5q0 -14 1 -30q8 -73 53 -160t104 -161t120 -137t106.5 -99t57.5 -36t57.5 36t106.5 99t120 137t104 161t53 160q1 16 1 30zM913 539q-7 -61 -44 -135.5
t-86.5 -140t-104 -125.5t-98.5 -99t-68 -54q-24 15 -68 54t-98.5 99t-104 125.5t-86.5 140.5t-44 136q-1 11 -1 25q0 91 65 156t156 65q89 0 153 -62l28 -26l28 26q64 62 153 62q91 0 156 -65t65 -156z" />
    <glyph glyph-name="uniE622" unicode="&#xe622;" 
d="M167 -28q-35 0 -59.5 24.5t-24.5 59.5v694q0 35 24.5 59.5t59.5 24.5h461q8 0 13 -5.5t5 -12.5t-5 -12.5t-13 -5.5h-457q-21 0 -36.5 -15.5t-15.5 -37.5v-684q0 -22 15.5 -37.5t36.5 -15.5h709q22 0 37.5 15.5t15.5 37.5v419q0 8 5.5 13t13 5t12.5 -5t5 -13v-424
q0 -35 -24.5 -59.5t-59.5 -24.5h-718zM336 160q-7 0 -11 5q-7 6 -4 15l46 169l448 448q17 17 42 17q30 0 53 -22l42 -43q22 -22 23 -52q0 -26 -17 -42l-449 -449l-169 -45q-2 -1 -4 -1zM358 198l130 35l-94 94zM417 348l92 -91l340 340v4l-2 2l-87 88zM841 772l-54 -54
l91 -92l54 54q9 9 8.5 23t-10.5 24l-42 42q-11 11 -26 11q-11 0 -20 -7z" />
    <glyph glyph-name="uniE623" unicode="&#xe623;" 
d="M527.5 848q-90.5 0 -173.5 -35.5t-142.5 -95t-95 -142.5t-35.5 -173.5t35.5 -173.5t95 -142.5t142.5 -95t173.5 -35.5t173.5 35.5t142.5 95t95 142.5t35.5 173.5t-35.5 173.5t-95 142.5t-142.5 95t-173.5 35.5zM527.5 -5q-110.5 0 -204 54.5t-148 148t-54.5 204t54.5 204
t148 147.5t204 54t204 -54t148 -147.5t54.5 -204t-54.5 -204t-148 -148t-204 -54.5zM724 454q17 0 29 18t12 43.5t-12 43t-29 17.5t-29 -17.5t-12 -43t12 -43.5t29 -18zM338 454q17 0 29 18t12 43.5t-12 43t-29 17.5t-28.5 -17.5t-11.5 -43t11.5 -43.5t28.5 -18zM779 323
q-5 0 -10 -4q-124 -128 -250 -120q-35 2 -70 15.5t-58 29t-44 34.5t-28 27.5t-10 12.5q-9 11 -20 2.5t-3 -19.5l12 -15q8 -9 31 -30t48 -37t63 -30.5t77 -17.5q139 -9 273 129q9 10 -1 20q-4 3 -10 3z" />
    <glyph glyph-name="uniE624" unicode="&#xe624;" 
d="M956 724q-16 36 -40 60l-1 1q-69 62 -147 52q-39 -6 -66 -25l-1 -1l-233 -231q-13 -16 6 -34q6 -6 14 -6.5t13 0.5l5 2l229 228q7 5 17.5 8.5t30.5 6.5t45.5 -6.5t49.5 -31.5q4 -5 9 -11t14 -20.5t13.5 -29t3.5 -33.5t-11 -35l-271 -270q-41 -21 -71 -9q-29 12 -43 59
q-1 2 -3.5 5t-11 7.5t-16.5 2.5q-11 -3 -16 -10.5t-4 -13.5l1 -6q20 -72 73 -93q19 -7 41 -7q42 0 79 21l3 2l280 279l2 2q40 62 6 137zM581 260q-6 6 -14 7t-13 -1l-5 -2l-229 -228q-7 -4 -17.5 -8t-30 -7t-45 6.5t-50.5 32.5q-4 4 -9 10t-14 21t-13.5 29t-3.5 33t11 35
l271 270q41 21 71 9q29 -11 43 -58q1 -3 3.5 -6t11 -7.5t16.5 -1.5q11 3 16 10.5t4 12.5l-1 6q-21 73 -74 93q-18 8 -40 8q-43 0 -79 -22l-3 -2l-280 -279l-2 -2q-40 -62 -6 -137q16 -35 40 -60l2 -1q68 -62 146 -51q39 5 66 24l1 2l233 231q0 1 1 2t1.5 2.5t1 3.5t0.5 4
t-0.5 4.5t-1.5 5.5t-3 6t-5 5z" />
    <glyph glyph-name="uniE625" unicode="&#xe625;" 
d="M501 526q17 0 27 10t10 27t-10 27.5t-27 10.5q-18 0 -31.5 -10.5t-13.5 -27t13.5 -27t31.5 -10.5zM501 526zM291 601q-18 0 -32 -10.5t-14 -27t14 -27t32 -10.5q16 0 26.5 10t10.5 27t-10.5 27.5t-26.5 10.5zM291 601zM950 285q0 89 -72 156t-174 75q1 3 0 4
q-20 95 -110.5 158.5t-205.5 63.5q-130 0 -222 -79t-92 -190q0 -121 118 -208l-27 -81q-3 -8 4 -14q4 -4 9 -4q3 0 6 2l101 50l12 -2q58 -12 91 -12q14 0 29 1q6 1 10 5q27 -69 97 -112.5t157 -43.5q32 0 88 14l78 -43q3 -1 7 -1t8 3q7 6 5 14l-20 66q103 82 103 178z
M415 232q-13 -1 -27 -1q-30 0 -85 12l-17 3q-5 1 -9 -1l-76 -38l20 59q3 10 -5 16q-114 79 -114 191q0 100 84 171t202 71q105 0 187.5 -56.5t101.5 -141.5q-110 -2 -187.5 -69.5t-77.5 -162.5q0 -26 8 -53q-3 1 -5 0zM823 123q-8 -5 -5 -14l13 -44l-53 30q-3 1 -7 1h-3
q-58 -15 -87 -15q-100 0 -171 60t-71 144.5t71 144.5t171 60q98 0 169.5 -61t71.5 -144q0 -87 -99 -162zM823 123zM598 383q-11 0 -20.5 -9.5t-9.5 -20.5t9.5 -20.5t20.5 -9.5q17 0 27.5 9t10.5 21t-10.5 21t-27.5 9zM598 383zM763 383q-11 0 -20 -9.5t-9 -20.5t9 -20.5
t20 -9.5q17 0 27.5 9t10.5 21t-10.5 21t-27.5 9zM763 383z" />
    <glyph glyph-name="uniE626" unicode="&#xe626;" 
d="M446 849h18q54 -48 128 -129q-83 -82 -143 -134q-1 15 -5 59t-5 58q-104 -43 -168.5 -134.5t-49.5 -198.5q1 -27 8.5 -52.5t23 -51.5t27.5 -43t35 -45t33 -41q-1 -6 -4 -26t-4 -27q-72 51 -119 123.5t-58 156.5v63q8 116 86.5 206.5t192.5 125.5q1 12 2 45.5t2 44.5z
M692 730q82 -48 135 -124.5t65 -167.5v-70q-11 -121 -98 -212.5t-209 -117.5q-2 -43 -5 -85h-18q-37 33 -127 125q73 76 144 137q4 -61 9 -123q114 34 187.5 129t58.5 209q-1 35 -12 67.5t-34 64.5t-40 51t-50 52q-8 9 -12 13l6 52v0z" />
    <glyph glyph-name="uniE627" unicode="&#xe627;" 
d="M523 288l-189 188q-6 6 -14 6t-14 -6t-6 -14.5t6 -14.5l203 -203q6 -6 14.5 -6t14.5 7v-1l339 356l29 30l59 61v1q5 5 5 14q0 8 -6 14t-14.5 6t-14.5 -7v1l-52 -55l-28 -30zM934 572q-6 6 -14 6t-14 -6q-9 -9 -5 -21q29 -73 29 -150q0 -111 -54.5 -204.5t-148 -148
t-204 -54.5t-204 54.5t-148 148t-54.5 204t54.5 204t148 148t203.5 54.5q85 0 160.5 -33t132.5 -91q6 -6 14 -5.5t14 6.5t6 14t-6 14l-2 2h-1q-62 63 -144 98.5t-174 35.5q-91 0 -173.5 -35.5t-142.5 -95.5t-95.5 -142.5t-35.5 -173.5t35.5 -174t95.5 -143t142.5 -95
t173.5 -35t174 35t142.5 95t95 143t35.5 174q0 83 -31 162q-1 6 -5 9z" />
    <glyph glyph-name="uniE628" unicode="&#xe628;" 
d="M527.5 850q-90.5 0 -173 -35t-142 -94.5t-94.5 -142t-35 -173t35 -173t94.5 -142t142 -95t173 -35.5t173 35.5t142 95t94.5 142t35 173t-35 173t-94.5 142t-142 94.5t-173 35zM527.5 1q-109.5 0 -203 54t-147.5 147t-54 203t54 203t147.5 147.5t203 54.5t203 -54.5
t147.5 -147.5t54 -203t-54 -203t-147.5 -147t-203 -54zM723 458q17 0 29 18t12 43t-12 42.5t-29 17.5t-28.5 -17.5t-11.5 -42.5t11.5 -43t28.5 -18zM339 458q17 0 28.5 18t11.5 43t-11.5 42.5t-28.5 17.5t-28.5 -17.5t-11.5 -42.5t11.5 -43t28.5 -18zM778 176q-5 0 -10 4
q-123 127 -249 119q-35 -2 -70 -15.5t-58 -28.5t-43.5 -34t-27.5 -27.5t-10 -12.5q-9 -11 -20 -2.5t-3 19.5l13 15q7 9 30 29.5t47.5 37t62.5 31t77 16.5q139 9 271 -128q10 -10 0 -20q-4 -3 -10 -3z" />
    <glyph glyph-name="uniE629" unicode="&#xe629;" 
d="M628 502l-105 321l-104 -321h-340l275 -198l-105 -320l274 199l275 -199l-106 320l275 198h-339zM661 294l74 -224l-192 139l-20 14l-19 -14l-192 -139l74 224l7 23l-19 14l-193 138h238h24l7 23l73 224l73 -224l8 -23h24h237l-192 -138l-20 -14z" />
    <glyph glyph-name="uniE62A" unicode="&#xe62a;" 
d="M523 821l105 -321h339l-275 -197l106 -321l-275 199l-274 -199l105 321l-275 197h340z" />
    <glyph glyph-name="uniE62B" unicode="&#xe62b;" 
d="M529 -50q-90 0 -172 35.5t-141.5 95t-95 141.5t-35.5 172t35.5 172.5t95 142t141.5 94.5t172 35t172.5 -35t142 -94.5t94.5 -142t35 -172.5t-35 -172t-94.5 -141.5t-142 -95t-172.5 -35.5zM529.5 793q-108.5 0 -200.5 -53.5t-145.5 -145t-53.5 -200t53.5 -200.5
t145.5 -145.5t200.5 -53.5t200 53.5t145 145.5t53.5 200.5t-53.5 200t-145 145t-200 53.5zM556 264h-73v27q-3 79 71 128q75 54 73 108q-8 76 -87 81q-95 0 -119 -108l-79 19q33 165 209 157q149 -8 165 -141q6 -87 -100 -152q-62 -40 -60 -97v-22zM564 112h-89v87h89v-87z
" />
    <glyph glyph-name="uniE62C" unicode="&#xe62c;" 
d="M526.5 842q-89.5 0 -170.5 -34.5t-140 -93.5t-93.5 -140t-34.5 -170t34.5 -170.5t93.5 -140t140 -93.5t170.5 -35t170.5 35t139.5 93.5t93.5 140t35 170.5t-35 170t-93.5 140t-139.5 93.5t-170.5 34.5zM526 806q109 0 202 -54t146.5 -146.5t53.5 -201.5q0 -145 -93 -257
q-80 34 -193 67q-4 1 -5 4.5t-1 18.5q0 19 14 49q15 31 20 66q19 23 29 70q7 37 -1 58q-1 3 -2 4q-1 6 1 32.5t6 49.5q4 20 -3.5 50.5t-28.5 57.5q-42 54 -123 59h-37q-80 -5 -122 -59q-21 -27 -28.5 -57.5t-3.5 -50.5q4 -23 6 -49.5t1 -32.5q-1 -1 -2 -4q-8 -21 -1 -58
q10 -47 29 -70q5 -35 20 -66q8 -17 8 -50q0 -15 -1 -18.5t-5 -4.5q-112 -33 -193 -68q-95 112 -95 259q0 109 54 201.5t146.5 146.5t201.5 54zM246 116q86 35 177 62q11 4 18 10t9.5 15.5t3 15.5t0.5 17q0 41 -11 65q-15 30 -17 61q-1 7 -6 12q-14 12 -23 55q-5 26 -1 38
q2 4 3 7q3 15 0.5 44.5t-6.5 53.5q-2 13 3.5 36t20.5 43q33 41 95 45h35q63 -4 96 -45q15 -20 20.5 -43t3.5 -36q-13 -72 -6 -98q1 -3 3 -7q4 -12 -1 -38q-9 -43 -23 -55q-5 -5 -6 -12q-2 -31 -17 -61q-17 -37 -17 -64q0 -11 0.5 -17.5t3 -15.5t9.5 -15t19 -10
q93 -28 177 -61q-56 -55 -128.5 -85.5t-154.5 -30.5q-80 0 -152.5 30t-127.5 84z" />
    <glyph glyph-name="uniE62D" unicode="&#xe62d;" 
d="M517.5 841q-89.5 0 -170.5 -35t-140 -93.5t-93.5 -139.5t-34.5 -170.5t34.5 -170.5t93.5 -140t140 -93.5t170.5 -34.5t170.5 34.5t139.5 93.5t93.5 140t35 170.5t-35 170.5t-93.5 139.5t-139.5 93.5t-170.5 35zM826 146q-80 33 -193 66q-4 2 -5 5t-1 18q0 20 14 49
q15 32 20 67q19 22 29 69q7 37 -1 58l-2 4q-1 7 1 33t6 49q3 20 -4 51t-28 57q-42 54 -123 59h-37q-80 -5 -123 -59q-20 -26 -27.5 -57t-3.5 -51q4 -23 6 -49t0 -33q0 -1 -1 -4q-8 -21 -1 -58q10 -47 29 -69q5 -35 19 -67q8 -17 8 -50q0 -15 -0.5 -18t-4.5 -4
q-112 -33 -193 -69q-95 113 -95 259q0 109 54 202t146.5 146.5t201.5 53.5t202 -53.5t146.5 -146.5t53.5 -202q0 -145 -93 -256z" />
    <glyph glyph-name="uniE62E" unicode="&#xe62e;" 
d="M905 458q-1 0 -3 2q55 60 71 130h-38q-29 -109 -144 -180.5t-266.5 -71.5t-267 71.5t-143.5 180.5h-38q16 -70 70 -130q-2 -1 -2 -2l-65 -76q-9 -10 1.5 -19t19.5 2l64 75l1 1q35 -33 79 -59l-48 -81q-7 -12 4.5 -19t18.5 5l49 82q48 -24 101 -39q-2 -2 -2 -4l-24 -96
q-4 -13 10 -17q5 -1 10 2t6 8l25 97v4q57 -12 117 -14v-97q0 -6 4 -10t9.5 -4t9.5 4t4 10v97q60 2 116 14q0 -3 1 -4l24 -97q3 -13 17 -10q5 2 8 6.5t2 10.5l-25 96q0 2 -2 4q53 14 101 38l49 -81q7 -12 18.5 -5t4.5 19l-48 81q45 26 80 59v-1l64 -75q9 -11 19.5 -2t1.5 19z
" />
    <glyph glyph-name="uniE62F" unicode="&#xe62f;" 
d="M528 678q-60 0 -115.5 -17.5t-110.5 -54.5t-105 -82t-113 -112q5 -4 14 -14q36 -38 54.5 -57t52 -51t56 -48.5t57 -38t64.5 -31.5t67.5 -18t78.5 -8q39 0 79 9.5t72 22t68.5 36t60.5 41.5t57 49t49.5 47.5t46.5 47.5q6 7 10 10q-36 43 -67.5 76t-76.5 71t-89 63.5t-99 42
t-111 16.5zM527.5 235q-73.5 0 -125.5 52t-52 125.5t52 125.5t125.5 52t125.5 -52t52 -125.5t-52 -125.5t-125.5 -52zM528 516q-43 0 -73.5 -30.5t-30.5 -73t30.5 -73t73 -30.5t73 30.5t30.5 73t-30.5 73t-72.5 30.5z" />
    <glyph glyph-name="uniE630" unicode="&#xe630;" 
d="M873 825h-721q-34 0 -57.5 -23.5t-23.5 -56.5v-601q0 -34 23.5 -57.5t57.5 -23.5h280v-80h-60q-8 0 -14 -6t-6 -14t6 -14t14 -6h281q8 0 14 6t6 14t-6 14t-14 6h-61v80h281q33 0 56.5 23.5t23.5 57.5v601q0 33 -23.5 56.5t-56.5 23.5zM552 -17h-80v80h80v-80zM913 144
q0 -17 -11.5 -29t-28.5 -12h-721q-17 0 -29 12t-12 29v40h802v-40zM913 224h-802v521q0 16 12 28t29 12h721q17 0 28.5 -12t11.5 -28v-521z" />
    <glyph glyph-name="uniE631" unicode="&#xe631;" 
d="M966 619q0 33 -71 57t-171 24t-171 -24t-71 -57v-108q0 -13 14 -27q-14 -13 -14 -26v-108q0 -14 14 -27q-14 -13 -14 -27v-107q0 -34 71 -57.5t171 -23.5t171 23.5t71 57.5v107q0 14 -14 27q14 13 14 27v108q0 13 -14 26q14 14 14 27v108zM939 189q0 -23 -63 -38.5
t-152 -15.5t-152 15.5t-63 38.5v70q30 -20 88 -32t127 -12t126.5 12t88.5 32v-70zM724 242q-89 0 -152 16t-63 38q0 7 6 13q71 -40 209 -40t209 40q6 -6 6 -13q0 -22 -63 -38t-152 -16zM939 350q0 -22 -63 -38t-152 -16t-152 16t-63 38v71q30 -20 88 -32t127 -12t126.5 12
t88.5 32v-71zM724 404q-89 0 -152 15.5t-63 38.5q0 6 6 13q71 -40 209 -40t209 40q6 -7 6 -13q0 -23 -63 -38.5t-152 -15.5zM939 511q0 -22 -63 -37.5t-152 -15.5t-152 15.5t-63 37.5v71q30 -20 88 -32t127 -12t126.5 12t88.5 32v-71zM724 565q-59 0 -108.5 7.5t-78 19.5
t-28.5 27q0 22 63 38t152 16t152 -16t63 -38t-63 -38t-152 -16zM464 506q0 26 -55.5 44.5t-133.5 18.5t-133 -18.5t-55 -44.5v-84q0 -11 11 -21q-11 -10 -11 -21v-84q0 -10 11 -21q-11 -10 -11 -21v-83q0 -26 55 -44.5t133 -18.5t133.5 18.5t55.5 44.5v83q0 11 -11 21
q11 11 11 21v84q0 11 -11 21q11 10 11 21v84zM443 171q0 -18 -49 -30t-118.5 -12t-118.5 12t-49 30v55q52 -34 167 -34t168 34v-55zM275.5 213q-69.5 0 -118.5 12t-49 29q0 5 5 11q55 -31 162.5 -31t162.5 31q5 -6 5 -11q0 -17 -49 -29t-118.5 -12zM443 296q0 -17 -49 -29.5
t-118.5 -12.5t-118.5 12.5t-49 29.5v55q52 -34 167 -34t168 34v-55zM275.5 338q-69.5 0 -118.5 12.5t-49 29.5q0 5 5 10q55 -31 162.5 -31t162.5 31q5 -5 5 -10q0 -17 -49 -29.5t-118.5 -12.5zM443 422q0 -17 -49 -29.5t-119 -12.5q-45 0 -84 5.5t-61 15.5t-22 21v55
q52 -34 167 -34t168 34v-55zM275 464q-69 0 -118 12t-49 29.5t49 30t118.5 12.5t118.5 -12.5t49 -30t-49 -29.5t-119 -12z" />
    <glyph glyph-name="uniE632" unicode="&#xe632;" 
d="M616 257q0 4 -4 4q-2 0 -3 -2l-99 -103l-54 54q-1 1 -3 1q-4 0 -4 -3q0 -2 1 -3l57 -57q1 -1 2.5 -1t3.5 1l102 106q1 1 1 3zM201 411h-28l-11 28l-10 -28h-28l23 -18l-11 -31l26 19l27 -19l-11 31zM182 371l-17 13l-3 1l-2 -1l-17 -13l7 21l1 3l-2 1l-15 12h20l1 2l7 19
l8 -19l1 -2h20l-15 -12l-2 -1l1 -3zM924 411h-29l-10 28l-11 -28h-28l23 -18l-11 -31l27 19l26 -19l-10 31zM904 371l-17 13l-2 1l-2 -1l-18 -13l7 21l1 3l-2 1l-15 12h20l1 2l8 19l7 -19l1 -2h20l-15 -12l-2 -1l1 -3zM323 696l-3 -36l3 -4l29 21l-4 4l-21 -15l4 37l-3 4
l-26 -19l3 -5zM360 719l-8 -36l3 -4l31 17l-3 5l-23 -13l8 37l-2 4l-29 -16l3 -5zM409 705q14 5 12 20l-8 -2q2 -9 -6 -12q-11 -4 -16 8q-5 13 5 18q7 2 12 -4l7 5q-9 9 -21 5q-18 -8 -11 -27q8 -18 26 -11zM441 752q10 3 11 -5q-1 -3 -13 -8q-14 -5 -11 -15t15 -8
q12 4 14 12q2 -4 4 -6l7 2q-3 3 -4 7l-4 16q-3 16 -20 10q-15 -3 -15 -15h7q0 8 9 10zM454 742l1 -5q2 -10 -10 -14q-8 -3 -9 3q-2 6 8 10q8 3 10 6zM477 725l8 1l-6 38l-8 -1zM478 771l-2 8l-8 -1l2 -8zM488 760h7l3 -32h8l-3 33h8v6h-9v5q-1 6 5 6q2 1 5 0l1 6q-3 1 -8 0
q-13 0 -11 -13v-5l-6 -1v-5zM535 728q8 0 13 7l-1 -6h8l1 38h-8v-22q-1 -11 -11 -11q-9 0 -9 10l1 24h-8v-24q-1 -15 14 -16zM578 726l-10 1l1 9l10 -1zM607 719q14 -4 21 9l-8 3q-3 -8 -12 -6q-11 3 -8 16q4 13 15 11q7 -2 8 -10h8q-2 13 -15 16q-19 4 -24 -15
q-4 -19 15 -24zM647 706q18 -7 26 11q6 19 -11 26q-18 7 -26 -12q-6 -17 11 -25zM644 729q5 12 16 9q9 -5 5 -18q-5 -13 -16 -9q-10 5 -5 18zM680 693l11 19q6 9 14 5q7 -4 1 -13l-12 -20l7 -4l12 19q5 9 13 5q7 -4 1 -13l-12 -20l7 -4l13 21q8 13 -3 20q-8 4 -16 -1
q3 8 -5 13q-7 4 -15 0l4 6l-7 4l-20 -33zM291 674l-5 8q-24 -16 -52 -53q-56 -71 -76 -169l9 -2q9 42 25 80t31.5 61t33 42t24.5 24.5t10 8.5zM761 682l-5 -8q4 -3 10.5 -8.5t24 -24.5t33 -42t31.5 -60.5t25 -80.5l9 2q-9 44 -25.5 82.5t-32.5 62t-34 43.5t-25 25.5t-11 8.5
zM291 143q0 -5 -2 -8q6 0 11 1l-10 -14l6 -4l13 20l12 4l-4 6q-13 -6 -26 -5zM311 109l-6 4l-4 -6l-22 16l-4 -5l23 -16l-9 -12l6 -4l8 12l23 -16l4 6l-23 16zM328 139l-9 -13q-5 1 -13 3q0 -3 -1 -6q5 -2 11 -3l-2 -2q-5 -7 3 -12l8 -6q7 -4 12 0q2 3 5 6q-2 2 -4 6
q-3 -4 -4 -6q-4 -2 -7 0l-4 3q-5 3 -2 7l2 2q12 -2 24 -2l-1 7q-10 0 -19 1l7 11zM375 108q-2 -11 -4 -21l7 -1l4 21zM362 102q-1 7 -1 11h-7q1 -11 1 -21l8 1q-1 2 -1 9zM400 95q-10 -8 -18 -12l4 -6q10 6 19 12zM341 95l57 -27l-3 -7l-57 28zM374 68l-6 -2q0 -1 1 -3.5
t2 -4.5q5 -11 7 -17l7 3q-1 2 -3 7q-5 10 -8 17zM330 70q1 -3 2 -7q14 3 27 7l-4 7q-12 -5 -25 -7zM409 40l3 12l8 -3l2 6l-8 2l2 8l7 -2l1 5l-14 5q1 0 2 2l3 3l13 -4l1 6l-10 3q2 1 5 5q0 1 1 1l-6 3q-7 -9 -14 -15q1 -4 1 -7v-2l4 -1l-2 -8l-7 2l-2 -5l7 -2l-3 -12
q-1 -3 -3 -4l2 -6h1q1 1 2 1q6 2 11 2q0 3 2 7q-5 -1 -9 -2zM466 75l-32 9l-14 -47q-1 -3 -4 -4l2 -6q3 0 6 1h3h9q0 3 1 6h-7q-3 0 -4 -1l5 18l5 -1q-1 -19 14 -32l3 3q2 1 3 2q-7 5 -10 10q3 1 10 3h2l-2 6q-6 -2 -13 -3q-1 4 -1 9l14 -4zM452 51l-19 6l2 7l19 -6zM436 70
l3 7l19 -6l-2 -7zM466 39v-2q1 -3 2 -5q4 2 7 5l-2 -24l7 -1l3 32l1 1l7 7l-6 5q-9 -12 -19 -18zM497 69l-1 -7l33 -3l1 6zM487 74q-8 -8 -18 -14q1 -2 3 -7q10 7 20 17zM491 43l21 -2l-2 -20q0 -5 -6 -4t-9 1q0 -4 1 -6q9 -1 10 -2q10 -1 11 9l2 21l11 -1l1 7l-39 4z
M584 24h7l-1 19l-47 -4l2 -19h7l-1 14l32 3zM539 39q4 4 14 12l-4 4l-1 1q-6 -6 -14 -12zM549 62q-1 2 -6 5q-3 1 -4 2l-4 -5q2 -1 6 -4q3 -2 4 -3zM560 72q-3 -9 -9 -16q3 -1 6 -3q3 4 5 9h8v-2q-1 0 -1 -1q-2 -8 -17 -13q3 -4 4 -5q15 6 18 13q5 -8 21 -10l2 7
q-17 1 -21 10v1q1 1 0 1l11 1l-3 -6q1 0 3 -1q2 0 4 -1l3 8l-1 6l-28 -3q1 2 1 5h-6zM570 25q1 1 1 2v6l-7 -1v-5q-1 -10 -26 -14q1 -1 3 -5l1 -1q21 5 26 12q11 -2 28 -7l3 7q-4 1 -12 2q-11 3 -17 4zM619 39l-4 -4q7 -6 10 -7l4 5h-1zM647 38l6 -2q4 7 6 12l-7 1
q-1 -3 -4 -10zM643 32l-4 14l21 7l-1 6l-22 -7l-2 7l15 5l-1 4q4 0 9 -1q1 1 1.5 3.5t0.5 4.5q-18 -1 -31 8l1 2l-8 -1q-4 -14 -23 -28l4 -4q1 -1 2 -1l6 6l2 -4l15 4l2 -7l-21 -6l2 -6l21 6l4 -14l-25 -7l2 -6l57 17l-2 6zM614 59q9 9 13 18q9 -6 19 -8zM727 87l-15 -7
l-1 1l8 14l-3 6l-33 -16l3 -5l24 11l-6 -11l1 -3l-18 -9l3 -6l18 9l4 -8q2 -3 -2 -5t-8 -3q1 -2 3 -4l2 -2q5 3 8 5q8 3 5 11l-5 9l15 8zM681 91l35 17l-2 6l-33 -16v7l-8 -3q0 -1 1 -4v-3l-16 -8l3 -6l13 7q0 -14 -5 -28q1 -1 3 -2.5t3 -2.5q2 7 3 9l12 -24l6 3l-16 33
q1 7 1 15zM766 152l-16 -11v5l-6 -3q1 -6 0 -15q4 1 7 1v6l2 2q4 -2 7 -3l4 5q-2 1 -6 2l11 7zM750 91l-2 4l31 21l-8 12l-37 -25l-3 3l38 26l4 -5l5 4l-6 9l-22 -15l-4 3l-4 -4l3 -2l-22 -15l6 -10l6 4l18 -28l6 4l-1 3l28 18l1 -1l5 3l-9 14zM742 103l26 17l3 -3l-26 -18z
M755 83l-2 4l27 19l3 -4zM724 108q2 6 2 11l2 1q4 -1 8 -3l3 5h-1q-3 1 -5 1l11 7l-3 5l-15 -10v5l-6 -4q1 -8 -2 -17q4 0 6 -1zM838 675h1h-1v1q-1 0 -1 1v0q0 -1 1 -1v-1zM527.5 845q-90.5 0 -172.5 -35t-141.5 -94.5t-95 -142t-35.5 -173t35.5 -172.5t95 -142t141.5 -95
t172.5 -35t173 35t142 95t94.5 142t35 172.5t-35 173t-94.5 142t-142 94.5t-173 35zM912 583q0 -1 2 -4q-3 -1 -4 1q1 2 2 3zM825 705l2 -2h-1h-1q0 1 -1 1h1v1zM741 769q0 -3 -6 -7q-5 10 -5 11t-1 2zM664 -3q-1 1 -2 3q1 1 1.5 2.5t0.5 2.5q1 0 4 -2q0 -1 0.5 -2t0.5 -2z
M686 6v2l1 1v1l3 -3q-2 -1 -4 -1zM694 9v1v2v5h1q0 -1 0.5 -3.5t0.5 -3.5q-1 -1 -2 -1zM706 14v0h-2l-1 -1q-3 1 -4 2q2 1 6.5 3.5t5.5 2.5q1 -1 4 -2q-5 -3 -9 -5zM738 30h-2l-1 -1q0 1 -1 5q3 -2 4 -2v-2zM747 36l3 3l1 -1h-1q-2 -1 -3 -2zM809 97q-25 -23 -55 -43
q-7 -4 -7 -7h-2q-53 -27 -65 -31l-1 -2q0 -1 1 -6q-2 1 -3 1q0 2 1 5l-6 -1q-56 -21 -115 -25q-71 -5 -139 14q-121 34 -203.5 130.5t-96.5 220.5q-7 62 3 119q23 129 115 220q107 108 259 121q53 4 106 -5q94 -17 171 -73q3 -2 4 -3h2q-1 2 -2 5q0 1 1 2.5t1 2.5q1 -1 4 -3
q0 -1 0.5 -2.5t0.5 -2.5q1 -1 4 -3.5t5 -3.5q-1 -1 -1 -3t-1 -3h2q1 0 2 -1q0 1 0.5 3t0.5 3q8 -4 10 -3l4 -4q0 -1 -1 -3l-3 -2q0 1 -3 2q-1 -5 2 -8q6 -5 16 -15l14 -14l3 -2v4q3 -2 9 -4q1 2 2 3q3 -4 7 -8q-1 -1 -3 -2q-3 6 -9 5q-1 -1 -4 0q3 -4 3.5 -4t7.5 -3
q0 -3 -1 -5l2 -3q19 -28 27 -39l5 -4q-1 -2 1 -6q13 -21 23 -43l4 -7q-1 -1 2 -7q24 -61 28 -126q4 -54 -6 -103q-26 -134 -126 -228zM527.5 711q-128.5 0 -219.5 -91t-91 -219.5t91 -219.5t219.5 -91t219.5 91t91 219.5t-91 219.5t-219.5 91zM710 181v-1h-1q-1 -1 -4 -3
l-3 -3q-2 -2 -3 -2l-8 -6h-1q-73 -51 -162.5 -51t-162.5 51h-1q-4 3 -7 6q-1 0 -3 2q-2 1 -4 3t-4 3l-1 1q-36 30 -61 70v1l-1 1q-1 2 -3 4q-1 2 -2.5 4.5t-1.5 3.5q-2 4 -4 7q0 1 -1 2q-2 5 -4 9h521q-2 -4 -4 -9q-1 -1 -1 -2q-2 -4 -4 -7q0 -1 -1.5 -3.5t-3 -4.5t-2.5 -4
v-1l-1 -1q-25 -40 -61 -70zM527.5 686q84.5 0 154 -45t104.5 -119h-517q35 74 104.5 119t154 45zM668 340v-35h-9v97h90v-74q1 -21 -18 -21h-11h-10q-1 5 -3 11q8 -1 22 -1q13 -1 12 11v12h-73zM649 418v9h51v17h-43v9h43v17h-47v8h47v18h9v-18h50v-8h-50v-17h45v-9h-45v-17
h53v-9h-113zM633 407q-10 12 -23 24l5 8q7 -5 18 -16q3 -4 7 -8zM640 376q-2 -10 -7 -33q-7 -28 -10 -36l-8 4q10 33 16 70q2 0 5 -2q4 -2 4 -3zM617 483l6 8l7 -7q4 -4 17 -18l-7 -8q-15 18 -23 25zM594 420v-10h-83v10h37v35h-42v11h42v29h8v-29h44v-11h-44v-35h38z
M522 318v-13h-9v77h78v-77h-8v13h-61zM466 375q14 3 33 7v-6q0 -3 -1 -5q-27 -4 -43 -8l-4 10q4 3 7 8q6 9 21 38q-16 0 -27 -2l-3 10q4 3 6 8q16 33 26 61l9 -4q-15 -37 -30 -65q5 0 14 1h10q6 14 11 24l8 -5q-23 -46 -39 -72h2zM501 342q-1 -3 -1 -11q-24 -4 -49 -11
l-2 10q25 5 52 12zM413 412v60h-112v10h121v-80h-108v-55q-2 -24 19 -22h72q21 -2 23 20q1 4 2 13q1 7 2 11l8 -4q-2 -12 -3 -23q-4 -29 -29 -27h-77q-27 -1 -26 30v99h9v-32h99zM668 393h73v-18h-73v18zM668 367h73v-18h-73v18zM522 372h61v-44h-61v44z" />
    <glyph glyph-name="uniE633" unicode="&#xe633;" 
d="M511 832q-91 0 -173.5 -35t-142 -95t-95 -142.5t-35.5 -173t35.5 -173t95 -142.5t142 -95t173 -35t173.5 35t142.5 95t95 142.5t35.5 173t-35.5 173t-95 142.5t-142.5 95t-173 35zM511 139q0 21 -52.5 82t-113 113t-82.5 52q22 0 82.5 52.5t113 113t52.5 82.5
q0 -22 52 -82.5t113 -113t82 -52.5q-21 0 -82 -52t-113 -113t-52 -82zM511 139z" />
    <glyph glyph-name="uniE634" unicode="&#xe634;" 
d="M812 831h-600q-19 0 -32 -13t-13 -32v-804q0 -19 13 -32t32 -13h600q19 0 32 13t13 32v804q0 19 -13 32t-32 13zM812 786v-598h-600v598h600zM212 -18v161h600v-161h-600zM212 -18zM459 68q0 -22 15.5 -37.5t37.5 -15.5t37.5 15.5t15.5 37.5t-15.5 37.5t-37.5 15.5
t-37.5 -15.5t-15.5 -37.5zM459 68z" />
    <glyph glyph-name="uniE635" unicode="&#xe635;" 
d="M426 644h203q9 0 15 6t6 14.5t-6 14.5t-15 6h-203q-9 0 -15 -6t-6 -14.5t6 -14.5t15 -6zM527.5 481q-50.5 0 -86.5 -36t-36 -86.5t36 -86.5t86.5 -36t86.5 36t36 86.5t-36 86.5t-86.5 36zM527.5 277q-33.5 0 -57.5 24t-24 58t24 57.5t57.5 23.5t57.5 -23.5t24 -57.5
t-24 -58t-57.5 -24zM527.5 563q-84.5 0 -144 -60t-59.5 -144.5t59.5 -144t144 -59.5t144 59.5t59.5 144t-59.5 144.5t-144 60zM527.5 196q-67.5 0 -115.5 47.5t-48 115t48 115.5t115.5 48t115.5 -48t48 -115.5t-48 -115t-115.5 -47.5zM894 685h-81q-17 0 -30.5 8.5
t-23.5 20.5t-21 24t-28 20t-40 8h-142h-143q-23 0 -40 -8t-28 -20t-21 -24t-23.5 -20.5t-30.5 -8.5h-81q-34 0 -58 -24t-24 -58v-489q0 -34 24 -57.5t58 -23.5h733q34 0 58 23.5t24 57.5v489q0 34 -24 58t-58 24zM935 277h-177q-8 -21 -19 -41h196v-122q0 -17 -12 -29
t-29 -12h-733q-17 0 -29 12t-12 29v122h196q-11 20 -19 41h-177v326q0 17 12 29t29 12h81q23 0 40 8.5t28 20.5t21 24t23.5 20.5t30.5 8.5h143h142q17 0 30.5 -8.5t23.5 -20.5t21 -24t28 -20.5t40 -8.5h81q17 0 29 -12t12 -29v-326zM833.5 440q-8.5 0 -14.5 -6t-6 -14.5
t6 -14t14.5 -5.5t14.5 5.5t6 14t-6 14.5t-14.5 6zM833.5 603q-25.5 0 -43.5 -18t-18 -43t18 -43t43.5 -18t43 18t17.5 43t-17.5 43t-43 18zM833 522q-8 0 -14 6t-6 14.5t6 14.5t14.5 6t14.5 -6t6 -14.5t-6 -14.5t-15 -6z" />
    <glyph glyph-name="uniE636" unicode="&#xe636;" 
d="M869 736h-177v36q0 29 -20.5 49.5t-50.5 20.5h-176q-29 0 -50 -20.5t-21 -49.5v-36h-176v-35h36l35 -671q0 -29 21 -50t50 -21h389q29 0 49.5 21t20.5 50l35 671h35v35zM410 772q0 14 10 24.5t25 10.5h176q15 0 25.5 -10.5t10.5 -24.5v-36h-247v36zM764 32v-1v-1
q0 -15 -10.5 -25.5t-24.5 -10.5h-389q-15 0 -25 10.5t-10 25.5v1v1l-36 669h530zM515 630h36v-565h-36v565zM446 66l-37 564l-35 -2l36 -564zM692 629l-35 2l-36 -565l36 -2z" />
    <glyph glyph-name="uniE637" unicode="&#xe637;" 
d="M526 847l-387 -223v-447l387 -223l387 223v447zM862 207l-336 -194l-335 194v387l335 194l336 -194v-387zM648 474h-28q0 -99 -11 -150h-171v-27h162q-20 -68 -189 -113q2 -3 7 -13q9 -11 11 -16q135 45 180 100q59 -36 150 -93l20 24q-72 47 -157 91q6 11 9 20h155v27
h-149q11 55 11 150zM265 477q45 4 87 6q-29 -47 -60 -91q-16 -22 -31 -31l11 -28q46 8 144 13q0 6 2 18v8q-20 -2 -62 -4q-35 -4 -51 -4q46 67 131 201l-29 11q-34 -57 -40 -66q-31 -2 -77 -2q44 62 104 170l-31 11q-36 -82 -87 -155q-11 -15 -26 -26l9 -31h6zM418 259
q-49 -7 -137 -19q-20 -3 -29 -5l7 -24q21 4 68 11q63 7 91 11v26zM445 399q6 -4 22 -13q40 -23 60 -36l15 25q-49 28 -84 44zM582 437q-42 24 -80 42l-13 -22q28 -16 77 -45zM467 596h128v-69h-153v-26h311l-18 -64q4 0 15 -3q9 0 14 -2l15 69v26h-155v69h133v27h-133v64
h-29v-64h-128v-27z" />
    <glyph glyph-name="uniE638" unicode="&#xe638;" 
d="M525.5 845q-90.5 0 -172.5 -35t-141.5 -94.5t-95 -142t-35.5 -173t35.5 -172.5t95 -141.5t141.5 -95t172.5 -35.5t173 35.5t142 95t94.5 141.5t35 172.5t-35 173t-94.5 142t-142 94.5t-173 35zM779 627l-164 -307q-3 -5 -8 -8l-308 -164q-4 -2 -9 -2q-8 0 -14 5
q-10 10 -3 23l164 308q3 5 8 8l308 164q12 6 22 -4t4 -23zM468 458l-131 -246l246 131l132 247zM553 373.5q-11 -11.5 -27 -11.5t-27.5 11.5t-11.5 27.5t11.5 27t27.5 11t27 -11t11 -27t-11 -27.5z" />
    <glyph glyph-name="uniE639" unicode="&#xe639;" 
d="M381 703h53v-40h-53v40zM567 383h58v-62h-58v62zM567 303h58v-64h-58v64zM116 840v-478q0 -106 68 -161q191 -153 263 -212q41 -32 73.5 -28t52.5 16t20 15l278 213q3 1 7.5 4.5t16 15t20.5 25.5t16.5 37.5t7.5 50.5v502h-823zM443 765q13 -16 23 -33l-17 -10
q-10 17 -21 33zM409 759q-14 -27 -20 -39h126v-17h-62v-40h59v-17h-59v-39h59v-17h-59v-40h67v-14h-139v-19h-19v160q-2 -3 -6 -10q-6 -6 -8 -9q-6 6 -12 14q35 42 55 94zM505 428v-18h-134v18h134zM270 699v17h31v49h19v-49h28v-17h-28v-58q4 1 13 3q11 4 16 6v-9
q1 -7 1 -10q-5 -2 -16 -4q-10 -4 -14 -5v-76q1 -27 -24 -26q-7 -1 -22 -1q0 5 -2 16q-1 3 -1 5h9q8 -1 11 -1q11 0 10 8v70q-15 -4 -31 -9l-2 21q18 3 33 8v62h-31zM326 197h-18v136q-11 -36 -32 -69q-1 3 -6 13l-3 6q28 42 40 93h-36v16h37v51h18v-51h34v-16h-34v-44l11 10
q9 -8 28 -26l-14 -14q-6 7 -25 28v-133zM344 232q23 35 42 79l19 -7q-20 -42 -42 -81q-3 2 -9.5 4.5t-9.5 4.5zM417 200h-31q0 2 -1 5q-2 11 -3 16q9 -1 31 -1q17 -1 16 13v103h-69v18h158v-18h-69v-105q1 -32 -32 -31zM503 224q-2 3 -6 13q-19 42 -32 66l17 9
q13 -25 38 -76q-1 2 1 -3l2 -2zM536 596q42 36 67 79h-59v18h70l6 12l21 -2q-3 -4 -5 -10h145v-18h-155q-10 -19 -23 -36v-120h-19v97q-15 -17 -36 -36q-1 3 -5 8q-5 6 -7 8zM644 202h-19v20h-58v-22h-20v202h25q10 24 15 42l22 -7q-3 -6 -9 -19q-5 -11 -7 -16h51v-200z
M773 245q-1 -46 -51 -44q-10 0 -26 -1h-12q-3 13 -5 22h12q20 -1 32 -1q30 -2 31 28q2 32 3 134h-68q-2 -3 -5 -10q-12 -24 -18 -34q-8 5 -18 12q23 38 40 93l22 -6l-3 -9q-3 -7 -11 -27h82q-4 -127 -5 -157zM670 333l16 11q29 -35 45 -57l-19 -14q-19 28 -42 60zM783 582
h-64v-33q1 -29 -30 -29q-13 -1 -41 -1q-1 9 -3 21h12q23 -1 30 -1q14 -1 13 13v30h-78v16h78v12l39 25h-103v18h132v-17l-49 -35v-3h64v-16zM784 723h-66v-20h-19v20h-70v-17h-20v17h-66v17h66v23h20v-23h70v23h19v-23h66v-17zM381 590h53v-40h-53v40zM381 646h53v-39h-53
v39z" />
    <glyph glyph-name="uniE63A" unicode="&#xe63a;" 
d="M136 396h-32l-12 33l-13 -33h-32l26 -20l-12 -37l31 23l30 -23l-12 37zM114 350l-20 15l-2 2l-3 -2l-20 -15l8 25l1 2l-2 2l-17 13h23l1 3l9 22l8 -22l1 -3h23l-17 -13l-2 -2l1 -2zM968 396h-33l-12 33l-12 -33h-33l27 -20l-12 -37l30 23l31 -23l-13 37zM946 350l-21 15
l-2 2l-2 -2l-21 -15l9 25l1 2l-3 2l-17 13h24l1 3l8 22l8 -22l1 -3h24l-17 -13l-2 -2v-2zM411 159q6 0 10.5 4.5t4.5 11t-4.5 11t-10.5 4.5t-11 -4.5t-5 -11t5 -11t11 -4.5zM501 159q6 0 10.5 4.5t4.5 11t-4.5 11t-10.5 4.5t-11 -4.5t-5 -11t5 -11t11 -4.5zM591 159
q6 0 10.5 4.5t4.5 11t-4.5 11t-10.5 4.5t-10.5 -4.5t-4.5 -11t4.5 -11t10.5 -4.5zM277 725l-4 -43l3 -4l33 24l-4 5l-24 -17l4 43l-3 4l-30 -22l4 -6zM319 751l-9 -42l3 -4l35 20l-3 5l-26 -15l10 43l-3 5l-33 -19l3 -6zM375 734q17 6 14 23l-9 -2q2 -10 -7 -14
q-12 -5 -18 10t6 20q8 2 13 -4l8 5q-10 11 -24 6q-20 -9 -12 -31q9 -20 29 -13zM412 789q11 3 13 -6q-2 -3 -15 -9q-16 -6 -13 -18q4 -11 18 -8q13 4 16 13q2 -5 4 -7l9 3q-4 3 -5 8q-4 14 -5 18q-3 18 -23 12q-18 -4 -17 -18l8 1q0 8 10 11zM427 777l1 -5q2 -13 -11 -17
q-10 -3 -11 4q-2 6 9 11q9 3 12 7zM453 820l2 -9l-10 -1l-1 9zM462 759l-9 -1l-6 43l9 2zM467 797l7 1l3 -37h10l-4 38l10 1v6h-10l-1 5q-1 8 6 8q3 0 6 -1l2 7q-5 1 -11 1q-14 -1 -12 -15l1 -6l-8 -1zM520 761q10 0 15 9v-8h9l1 44h-9l-1 -26q-1 -12 -12 -12q-10 0 -10 12
l1 27h-9l-1 -28q-1 -17 16 -18zM560 771l11 -2l-2 -11l-11 2zM603 750q17 -4 24 11l-9 3q-3 -9 -13 -7q-13 4 -9 19t16 13q8 -3 9 -11l10 -1q-2 15 -17 19q-22 4 -28 -18q-4 -22 17 -28zM650 736q20 -8 29 13q7 21 -12 30q-21 7 -30 -14q-7 -20 13 -29zM646 762q6 15 18 10
q11 -5 6 -20q-6 -15 -18 -10t-6 20zM687 721l13 22q7 10 16 5q8 -4 1 -15l-13 -22l8 -5l13 22q7 10 15 5q8 -4 2 -15l-14 -22l8 -5l14 24q10 15 -3 23q-9 5 -18 -1q3 10 -6 15q-8 5 -17 0l4 7l-8 4l-23 -38zM240 699l-6 9q-28 -19 -61 -60q-64 -83 -87 -195l11 -2
q10 48 28.5 91.5t36.5 70t38 48.5t28 28.5t12 9.5zM781 708l-6 -9q4 -3 12 -9.5t28 -28.5t37.5 -48t36.5 -70t29 -92l10 2q-10 50 -29 94.5t-37.5 71.5t-39 50t-29 29.5t-12.5 9.5zM240 87q-1 -5 -2 -8q6 0 12 1l-11 -16l6 -5l16 23q6 2 13 4l-5 7q-15 -6 -29 -6zM282 82
l-10 -15l-15 5l-2 -8q7 -2 13 -3l-1 -2q-7 -9 3 -14l9 -6q8 -6 13 -1l7 7q-3 3 -5 6q-3 -4 -5 -6q-4 -3 -8 0l-5 4q-5 3 -2 7l2 3q14 -2 28 -2l-1 7q-12 0 -22 2l8 12zM263 49l-7 4l-5 -6l-26 17l-4 -6l26 -18l-9 -13l7 -5l9 14l26 -18l5 6l-27 18zM366 32q-12 -8 -22 -14
l5 -6q11 6 22 14zM321 41q0 8 -1 12h-8q1 -12 1 -24h9q0 4 -1 12zM336 48q-2 -13 -4 -25l8 -2l4 25zM359 -6l-65 31l3 7l65 -31zM335 1l-7 -2q1 -4 3 -9q6 -13 8 -19l9 3q-2 2 -4 7q-6 13 -9 20zM285 4l2 -8q16 3 30 8l-3 8q-15 -6 -29 -8zM375 -31l4 13l9 -2l2 6l-9 3l3 9
l7 -3l2 6l-17 6q1 0 3 2l4 4l14 -5l2 7l-12 3l6 6v1l-7 4q-7 -11 -16 -18q2 -4 3 -8l-1 -2l5 -1l-3 -9l-8 2l-2 -6l8 -3l-4 -12q0 -4 -3 -5l2 -7h1q2 1 3 1q6 2 13 2q0 4 1 8zM441 9l-37 11l-16 -54q-1 -4 -4 -6l2 -6q3 0 6 1h4h10q1 3 2 7h-9q-2 0 -4 -1l6 21l5 -2
q-1 -22 17 -36l3 3q2 1 3 2q-8 6 -11 12q4 1 11 3q2 1 3 1l-3 7q-7 -3 -14 -5q-2 5 -2 11l17 -5zM425 -18l-22 7l2 8l22 -7zM407 3l2 8l23 -7l-3 -8zM470 -28l24 -2l-2 -23q-1 -5 -7 -5q-7 1 -11 2q1 -4 1 -8q2 0 6 -0.5t6 -0.5q12 -1 13 10l2 24l13 -1v7l-44 5zM465 8
q-8 -9 -20 -16q1 -2 3 -8q11 8 23 19zM476 -5l1 7l38 -4l-1 -7zM441 -33v-1q1 -4 2 -7q5 3 9 7l-3 -29h8l4 37q6 6 8 9l-6 5q-11 -13 -22 -21zM577 -50l8 1l-2 22l-53 -5l2 -22h8l-1 16l37 3zM561 -49q1 2 0 2q1 4 1 8l-8 -1v-6q-1 -11 -30 -16q1 -1 3 -6q1 0 1 -1
q25 6 30 14q13 -2 33 -8l3 7q-5 1 -14 3q-13 3 -19 4zM525 -32q5 4 16 14l-5 5l-16 -14zM537 -5q-2 1 -8 5q-3 1 -4 2l-5 -5q3 -1 7 -5q4 -2 5 -3zM549 6q-3 -10 -10 -18l6 -4q4 5 7 10h8q1 -1 0 -2v-1q-2 -9 -20 -15q4 -5 4 -6q18 6 22 15q5 -9 23 -11l3 7q-19 2 -24 12v1
v1l12 1l-3 -6q1 -1 3 -1q3 -1 5 -1l3 9l-1 6l-32 -3q1 3 1 6h-7zM617 -32l-5 -5l12 -8l5 5l-1 1q-7 5 -11 7zM650 -34l7 -2q3 8 6 14l-7 1q-2 -3 -6 -12v-1zM645 -40l-5 16l25 7l-2 7l-25 -7l-2 8l17 5l-1 5q4 0 11 -1q0 1 0.5 4t0.5 5q-20 -1 -35 9l1 3l-9 -2
q-5 -16 -27 -32q2 -1 5 -4l2 -2q4 4 8 7l1 -5l18 6l2 -8l-24 -7l2 -7l24 7l5 -16l-29 -9l2 -6l66 19l-2 6zM612 -9q9 10 14 20q10 -6 23 -9zM742 24l-18 -9v2l8 16l-3 6l-38 -18l3 -7l28 14l-7 -13l2 -4l-21 -10l3 -7l21 11l4 -9q3 -4 -2 -6q-5 -3 -9 -4q1 -2 4 -5
q1 -1 1 -2q6 3 10 6q9 4 5 12l-6 12l18 8zM689 28l40 20l-3 6l-37 -18l-1 7l-9 -3q1 -1 1 -4q0 -2 1 -4l-18 -9l3 -6l14 7q0 -16 -5 -32q1 -1 4 -3l3 -3q1 6 3 11l13 -28l8 4l-18 37q1 9 1 18zM786 98l-18 -12v5l-7 -4q2 -6 1 -17q3 1 7 2v7l2 1q5 -1 9 -3l5 6q-4 1 -7 2
l12 8zM768 28l-3 4l37 25l-10 14l-43 -30l-2 4l43 30l4 -6l7 4l-8 11l-25 -17l-4 3l-6 -5l4 -2l-25 -17l7 -11l6 4l22 -32l7 5l-2 2l32 22l1 -2l7 4l-11 16zM759 41l30 21l3 -5l-30 -20zM774 19l-3 4l32 22l3 -4zM739 47q1 7 2 12l1 2q5 -1 9 -3l5 5q-1 0 -2 1q-3 1 -5 1
l12 8l-4 5l-17 -11q1 2 0 5l-7 -4q2 -9 -2 -20q5 0 8 -1zM870 700v0l-1 1l-1 1v0v-1q1 -1 2 -1zM512 896q-104 0 -199 -40.5t-163.5 -109t-109 -163.5t-40.5 -199t40.5 -199t109 -163.5t163.5 -109t199 -40.5t199 40.5t163.5 109t109 163.5t40.5 199t-40.5 199t-109 163.5
t-163.5 109t-199 40.5zM955 594q0 -1 2 -4q-3 -1 -5 0q2 3 3 4zM854 734q2 -1 2 -2h-1l-1 2v0zM758 808q-1 -4 -7 -8l-7 13v2q7 -3 14 -7zM669 -80q-1 1 -2 3q1 1 1.5 3t0.5 3q1 0 2.5 -1.5t2.5 -1.5v-2q0 -1 1 -2zM694 -71q1 1 2 5v0l3 -3q-3 -1 -5 -2zM704 -67v2v1v7
q1 -2 1.5 -5t0.5 -4h-1zM717 -61v0q-1 0 -2 -0.5t-2 -1.5q-2 2 -4 3q3 2 7.5 4t6.5 3q2 -1 5 -3q-6 -2 -11 -5zM754 -42q-1 0 -2 -1l-1 -1l-1 6q3 -2 4 -3v-1zM765 -35q2 1 3 2h1l-1 -1q-2 -1 -3 -1zM836 35q-28 -27 -64 -50q-7 -5 -8 -9l-2 1q-60 -31 -75 -36v-2v-7
q-3 1 -3 2q0 2 1 5l-7 -2q-64 -24 -132 -28q-82 -6 -160 16q-140 39 -235 150t-111 254q-8 71 4 138q27 148 132 253q124 124 298 139q62 5 122 -6q108 -19 197 -84q4 -3 5 -3h3q-1 2 -3 5q0 1 1 3t1 3q1 -1 2.5 -1.5t2.5 -1.5q0 -1 0.5 -3t0.5 -3q2 -1 5 -4t5 -4l-1 -6
q0 -1 1.5 -1t2.5 -1q0 1 0.5 3t0.5 4q9 -5 11 -4q2 -1 5 -4q0 -1 -2 -3t-2 -3q-1 0 -4 3q-1 -6 3 -10q6 -6 17.5 -17t16.5 -16l3 -3q0 3 1 4q3 -1 10 -3q1 1 2 3q4 -4 8 -9q-2 -1 -3 -3q-4 8 -11 6q-1 -1 -5 0l4 -4q1 -1 10 -5l-2 -5q2 -3 2 -4q22 -31 32 -44l5 -5
q-1 -2 2 -7q14 -24 25 -49l5 -8q0 -1 2 -8q28 -71 33 -145q4 -62 -7 -119q-30 -154 -145 -262zM512 742q-97 0 -179.5 -48t-130.5 -130.5t-48 -179.5t48 -179.5t130.5 -130.5t179.5 -48t179.5 48t130.5 130.5t48 179.5t-48 179.5t-130.5 130.5t-179.5 48zM807 239
q0 -1 -1 -3l-4 -8q-1 -1 -2 -4l-3 -5q-2 -3 -3 -5q-1 0 -2 -1v-1q-28 -47 -70 -81v-1h-1q-2 -1 -5 -4q-2 -1 -4 -3q-3 -2 -3 -3l-8 -6h-1q-85 -59 -188 -59t-187 59h-2l-8 6l-2 2l-1 1q-2 1 -4 3q-3 2 -5 4h-1v1q-42 35 -70 81l-2 2q-1 2 -3 5l-3 5q-1 3 -2 4l-4 8
q-1 1 -1 3q-3 5 -5 9h600q-2 -4 -5 -9zM214 524q40 85 120.5 137t177.5 52t177.5 -52t120.5 -137h-596zM314 313q30 -1 105 0q0 -2 -2 -6q-1 -5 -1 -6h-104q-31 0 -43 24q-10 -10 -21 -29l-7 9q13 17 24 30v75h-22v11h31v-86q12 -22 40 -22zM276 448q-11 20 -23 37l8 6
q9 -12 23 -36zM296 478h119v-11h-50q-11 -28 -18 -40h10v-103h-10v101q-18 -34 -55 -68q-1 1 -4 5q0 1 -1 2q-2 1 -3 2q50 42 70 101h-58v11zM410 364q-3 4 -8 11q-13 17 -32 41l8 6q19 -22 41 -49zM437 315q-1 1 -4 3q-2 0 -3 1q11 18 19 37l8 -4q-2 -3 -5 -9
q-9 -19 -15 -28zM470 496h10v-22h40v-10h-40v-24h31v-10h-75v10h34v24h-40v10h40v22zM430 376h90v-10h-40v-47q1 -22 -17 -22h-17q0 5 -1 11h15q11 -1 11 11v47h-41v10zM440 408h69v-9h-69v9zM493 351l6 5q9 -14 16 -29l-8 -5q-3 8 -11 23q-3 4 -3 6zM553 439h10v-32
q9 -74 45 -103q-4 -4 -8 -9q-33 30 -41 89q-6 -53 -47 -92q-3 4 -8 9q46 44 49 100v38zM528 413q-5 3 -10 4q16 39 24 79l10 -1q-2 -4 -4 -14q-3 -13 -4 -18h58v-12l-10 -37q-2 1 -5 2q-4 1 -5 2l11 35h-52q-5 -19 -13 -40zM629 450h72v47h10v-47h72v-92h-10v12h-62v-79h-10
v79h-62v-12h-10v92zM639 439v-58h62v58h-62zM773 439h-62v-58h62v58z" />
    <glyph glyph-name="uniE63B" unicode="&#xe63b;" 
d="M490 556h166v-74h-166v74zM512 832l-3 -6q-2 -4 -12.5 -16t-24.5 -22.5t-40.5 -23t-58.5 -22t-82 -16t-108 -6.5v-459q0 -29 11.5 -58.5t30.5 -55.5t43.5 -51t52 -45.5t54.5 -38.5t51.5 -32t43.5 -24t31 -15l11 -5q7 3 18.5 8.5t46 24t65.5 38.5t69 50t65 60.5t46 68.5
t19 75v459q-59 0 -108.5 6.5t-82 16t-58.5 21.5t-40.5 24t-24 22t-12.5 16zM383 176h-46v233q-19 -30 -41 -62q-2 12 -6 28q-4 25 -6 36q54 95 84 209l49 -13q-13 -52 -34 -101v-330zM726.5 226q-9.5 -16 -12.5 -20q-84 46 -118 115v-145h-50v143q-43 -76 -124 -119
q-18 28 -29 37q80 43 123 105h-112v45h142v52h-105v162h261v-162h-106v-52h140v-45h-112q34 -56 116 -95q-4 -5 -13.5 -21z" />
    <glyph glyph-name="uniE63C" unicode="&#xe63c;" 
d="M513 823q-89 0 -170.5 -35t-140 -93.5t-93.5 -140t-35 -170.5t35 -170.5t93.5 -140t140 -93.5t170.5 -35t170 35t140 93.5t93.5 140t34.5 170.5t-34.5 170.5t-93.5 140t-140 93.5t-170 35zM513 786q109 0 201.5 -54t146.5 -146.5t54 -201.5q0 -145 -93 -257
q-80 34 -193 67q-4 1 -5 4.5t-1 18.5q0 19 14 49q15 32 19 66q20 23 29 70q7 37 -1 58q-1 3 -1 4q-2 6 0 32.5t6 49.5q4 20 -3 51t-28 57q-42 54 -124 59h-37q-80 -5 -122 -59q-21 -26 -28 -57t-4 -51q5 -23 6.5 -49.5t0.5 -32.5q0 -1 -1 -4q-9 -21 -1 -58q9 -47 29 -70
q4 -34 19 -66q8 -17 8 -50q0 -15 -1 -18t-4 -5q-112 -33 -193 -68q-95 112 -95 259q0 109 54 201.5t146.5 146.5t201.5 54zM232 97q86 35 177 62q11 3 18 9t9.5 15.5t3.5 15.5t1 17q0 41 -12 65q-14 31 -17 61q0 8 -6 12q-14 13 -22 55q-6 27 -1 38q1 4 2 7q3 15 1 44.5
t-7 53.5q-2 13 3.5 36t21.5 44q32 41 95 45h34q64 -4 96 -45q16 -21 21.5 -44t2.5 -36q-13 -71 -5 -98q0 -3 2 -7q5 -11 -1 -38q-8 -42 -22 -55q-6 -4 -6 -12q-3 -30 -17 -61q-18 -37 -18 -64q0 -11 1 -17t3.5 -15.5t9.5 -15.5t18 -10q93 -27 178 -60q-56 -56 -129 -86.5
t-154 -30.5q-80 0 -152.5 30t-128.5 85z" />
    <glyph glyph-name="uniE63D" unicode="&#xe63d;" 
d="M512 823q-89 0 -170.5 -35t-140 -93.5t-93.5 -140t-35 -170.5t35 -170.5t93.5 -140t140 -93.5t170.5 -35t170.5 35t140 93.5t93.5 140t35 170.5t-35 170.5t-93.5 140t-140 93.5t-170.5 35zM821 127q-80 34 -193 67q-4 1 -5 4.5t-1 18.5q0 19 14 49q15 31 19 66
q20 23 29 70q8 37 -1 58q-1 3 -1 4q-1 6 0.5 32.5t6.5 49.5q3 20 -4 51t-28 57q-42 54 -123 59h-37q-81 -5 -123 -59q-21 -26 -28 -57t-3 -51q4 -23 6 -49.5t0 -32.5q0 -1 -1 -4q-8 -21 -1 -58q9 -47 29 -70q4 -34 19 -66q8 -17 8 -50q0 -15 -1 -18t-4 -5q-113 -33 -193 -68
q-95 112 -95 259q0 109 54 201.5t146.5 146.5t201.5 54t201.5 -54t146.5 -146.5t54 -201.5q0 -145 -93 -257z" />
    <glyph glyph-name="uniE63E" unicode="&#xe63e;" 
d="M797 409h99v-56h-99v56zM519 145h56v-99h-56v99zM804 598l-70 -70l-39 40l70 70zM765 124l-70 70l39 39l70 -70zM389 231l131 132v266h85v-300q-157 -156 -157 -157zM570 841v-79q101 0 187.5 -50.5t136.5 -136.5t50 -187.5t-50 -187.5t-136.5 -136.5t-187.5 -50.5
q-141 0 -246.5 93.5t-124.5 230.5l57 -56l57 57l-156 156l-157 -156l57 -57l61 62q12 -114 74.5 -207.5t162 -147.5t215.5 -54q92 0 176 36t145 96.5t97 144.5t36 176.5t-36 176.5t-97 144.5t-145 96.5t-176 36z" />
    <glyph glyph-name="uniE63F" unicode="&#xe63f;" 
d="M867 188q-25 -69 -72 -132q3 -1 9 -3.5t19.5 -11t24 -19.5t18 -29t5.5 -39q0 -3 -0.5 -8.5t-10 -19.5t-26 -24.5t-53.5 -18t-87 -6.5q-6 1 -14.5 2t-32.5 5.5t-44 11t-42 18.5t-32 27h-34q-10 -15 -31.5 -27t-42 -18.5t-44.5 -11t-33 -5.5t-14 -2q-50 -1 -87 6.5
t-53.5 18t-26 24.5t-10 19t-0.5 9q-2 15 1.5 29t10 24t15 18.5t17 14t16 9.5t11.5 5l5 2q-21 28 -39 61.5t-25.5 51.5t-7.5 19q-79 -128 -97 -41q-6 29 -4 67q18 109 100 195q9 9 10 9q-4 34 -2 57t8 38t12 23t11 11l4 3q2 71 20.5 128t44.5 92t61 60t64 36.5t60.5 17.5
t43.5 6.5t19 0.5t19 -0.5t43.5 -6.5t60.5 -17.5t64 -36.5t61 -60t44.5 -92t20.5 -128q2 -1 4.5 -3t10.5 -11t12 -23t8 -38t-1 -57l9 -9q6 -6 22.5 -27t30.5 -43t27.5 -56.5t19.5 -68.5q1 0 1 -11t-1 -26t-4 -31t-10 -24.5t-17.5 -8.5t-28.5 19t-41 56v0z" />
    <glyph glyph-name="uniE640" unicode="&#xe640;" 
d="M348 534h28q10 39 41.5 64t72.5 25h35q40 0 72 -25t41 -64h28q10 39 41.5 64t72.5 25h22v27h-27q-39 2 -69 27t-40 62h-28q-9 -37 -39 -62t-69 -27h-45q-40 2 -70 27t-39 62h-28q-10 -37 -40 -62t-69 -27h-17v-27h12q41 0 72.5 -25t41.5 -64zM637 145q-41 0 -72.5 25
t-41.5 64h-28q-10 -39 -41.5 -64t-72.5 -25h-10v-28h17q38 -2 67.5 -26.5t39.5 -61.5h28q9 37 38.5 61.5t68.5 26.5h23v28h-16zM780 314q-41 0 -72.5 25t-41.5 64h-28q-9 -39 -41 -64t-72 -25h-35q-41 0 -72.5 25t-41.5 64h-28q-10 -39 -41.5 -64t-72.5 -25h-12v-28h19
q38 -2 67.5 -26.5t39.5 -61.5h28q9 37 38.5 61.5t68.5 26.5h48q39 -2 68.5 -26.5t38.5 -61.5h28q10 37 39.5 61.5t68.5 26.5h28v28h-22zM952 484h-43q-38 3 -67.5 27.5t-38.5 61.5h-28q-9 -37 -38.5 -61.5t-67.5 -27.5h-45q-38 3 -67 27.5t-39 61.5h-28q-9 -37 -38.5 -61.5
t-67.5 -27.5h-44q-39 3 -68 27.5t-39 61.5h-28q-9 -37 -38 -61.5t-68 -27.5h-27v-27h20q40 0 72 -25t41 -64h28q10 39 42 64t72 25h29q41 0 72.5 -25t41.5 -64h28q10 39 41.5 64t72.5 25h29q41 0 72.5 -25t41.5 -64h28q10 39 41.5 64t72.5 25h35v27z" />
    <glyph glyph-name="uniE641" unicode="&#xe641;" 
d="M511 345q-29 0 -49.5 -20.5t-20.5 -49.5q0 -23 14 -42l1 -1q18 -21 19 -36v-40q0 -15 10.5 -25.5t25.5 -10.5t26 10.5t11 25.5v41v1q0 3 1 6q4 13 17 27v1q15 19 15 43q0 29 -20.5 49.5t-49.5 20.5zM542 252q-27 -31 -26 -55v-41q0 -5 -5 -5t-5 5v40q0 26 -26 56
q-7 10 -7 23q0 16 11 27t27 11t27.5 -11t11.5 -27q0 -13 -8 -23zM542 252zM778 479h-2h-37v102v2q-11 83 -75 140t-149 57q-94 0 -160 -66.5t-66 -159.5v-75h-44q-22 0 -38 -16t-16 -38v-383q0 -23 16 -38.5t38 -15.5h331h1h199h2q22 0 38 15.5t16 38.5v383q0 22 -16 38
t-38 16zM320 554q0 80 57 137t138 57q73 0 128 -49q55 -48 64 -119v-101h-387v75zM800 42q0 -9 -6 -15.5t-15 -7.5h-534q-9 0 -15.5 6.5t-6.5 16.5v383q0 9 6.5 15.5t15.5 6.5h59h3h2h300h1h5h106h2h55q9 0 15.5 -6.5t6.5 -15.5v-383zM800 42z" />
    <glyph glyph-name="uniE642" unicode="&#xe642;" 
d="M944 -135q-10 0 -16 6l-864 864q-7 7 -7 17.5t7 18t16 7.5t16 -8l864 -864q7 -7 7 -17.5t-7 -17.5q-6 -6 -16 -6zM80 -135q-10 0 -16 6q-7 7 -7 17.5t7 17.5l864 864q16 16 32 0q7 -7 7 -17.5t-7 -17.5l-864 -864q-6 -6 -16 -6z" />
    <glyph glyph-name="uniE643" unicode="&#xe643;" 
d="M992 -128q-13 0 -22.5 9.5t-9.5 22.5v352q0 13 9.5 22.5t22.5 9.5t22.5 -9.5t9.5 -22.5v-352q0 -13 -9.5 -22.5t-22.5 -9.5zM992 352h-960q-13 0 -22.5 9.5t-9.5 22.5t9.5 22.5t22.5 9.5h960q13 0 22.5 -9.5t9.5 -22.5t-9.5 -22.5t-22.5 -9.5zM960 480h-288q-26 0 -45 19
t-19 45v288q0 26 19 45t45 19h288q26 0 45 -19t19 -45v-288q0 -26 -19 -45t-45 -19zM960 832h-288v-288h288v288zM512 480q-13 0 -22.5 9.5t-9.5 22.5v352q0 13 9.5 22.5t22.5 9.5t22.5 -9.5t9.5 -22.5v-352q0 -13 -9.5 -22.5t-22.5 -9.5zM352 480h-288q-26 0 -45 19t-19 45
v288q0 26 19 45t45 19h288q26 0 45 -19t19 -45v-288q0 -26 -19 -45t-45 -19zM352 832h-288v-288h288v288zM64 288h288q26 0 45 -19t19 -45v-288q0 -26 -19 -45t-45 -19h-288q-26 0 -45 19t-19 45v288q0 26 19 45t45 19zM64 -64h288v288h-288v-288zM512 288q13 0 22.5 -9.5
t9.5 -22.5v-352q0 -13 -9.5 -22.5t-22.5 -9.5t-22.5 9.5t-9.5 22.5v352q0 13 9.5 22.5t22.5 9.5zM672 288q13 0 22.5 -9.5t9.5 -22.5v-352q0 -13 -9.5 -22.5t-22.5 -9.5t-22.5 9.5t-9.5 22.5v352q0 13 9.5 22.5t22.5 9.5zM832 288q13 0 22.5 -9.5t9.5 -22.5v-96
q0 -13 -9.5 -22.5t-22.5 -9.5t-22.5 9.5t-9.5 22.5v96q0 13 9.5 22.5t22.5 9.5zM832 64q13 0 22.5 -9.5t9.5 -22.5v-128q0 -13 -9.5 -22.5t-22.5 -9.5t-22.5 9.5t-9.5 22.5v128q0 13 9.5 22.5t22.5 9.5zM832 64z" />
    <glyph glyph-name="uniE644" unicode="&#xe644;" horiz-adv-x="1000" 
d="M676 471q16 0 34 -2q-23 106 -123.5 176t-229.5 70q-95 0 -175.5 -39.5t-127.5 -108t-47 -150.5q0 -138 140 -236l-35 -106l122 62q89 -18 123 -18q15 0 33 2q-11 37 -11 73q0 115 86.5 196t210.5 81zM485.5 573q22.5 0 38.5 -16t16 -38.5t-16 -38t-38.5 -15.5t-38 15.5
t-15.5 38t15.5 38.5t38 16zM240.5 464q-22.5 0 -38 15.5t-15.5 38t15.5 38.5t38 16t38.5 -16t16 -38.5t-16 -38t-38.5 -15.5zM994 197q0 68 -41.5 127t-110 93t-146.5 34q-124 0 -211 -74.5t-87 -179.5t87 -179.5t211 -74.5q35 0 105 18l96 -53l-26 87q123 92 123 202z
M605 236q-16 0 -27.5 11.5t-11.5 27.5t11.5 27t27.5 11t27 -11t11 -27t-11 -27.5t-27 -11.5zM797 234q-16 0 -27 11.5t-11 27.5t11 27t27 11t27.5 -11t11.5 -27t-11.5 -27.5t-27.5 -11.5z" />
    <glyph glyph-name="uniE645" unicode="&#xe645;" 
d="M526 845q-91 0 -173 -35t-141.5 -94.5t-95 -142t-35.5 -173t35.5 -172.5t95 -141.5t141.5 -95t172.5 -35.5t173 35.5t142 95t94.5 141.5t35 172.5t-35 173t-94.5 142t-142 94.5t-172.5 35zM526 -5q-110 0 -203.5 54.5t-148 148t-54.5 203.5t54.5 203.5t148 148
t203.5 54.5t203.5 -54.5t148 -148t54.5 -203.5t-54.5 -203.5t-148 -148t-203.5 -54.5zM753 654l-308 -164q-5 -3 -8 -8l-164 -308q-7 -13 3 -23q6 -5 14 -5q5 0 9 2l308 164q5 3 8 8l164 307q6 13 -4 23t-22 4zM583 343l-246 -131l131 246l247 132zM487 401
q0 -16 11.5 -27.5t27.5 -11.5t27 11.5t11 27.5t-11 27t-27 11t-27.5 -11t-11.5 -27z" />
    <glyph glyph-name="uniE646" unicode="&#xe646;" 
d="M939 640h-162q27 58 -3 113q-27 46 -83 56.5t-111 -20.5q-38 -23 -62 -64h-2h-2h-4h-2h-2h-3q-19 38 -59 62q-53 31 -110 20.5t-84 -56.5q-30 -52 -3 -113h-162q-17 0 -29.5 -12.5t-12.5 -30.5v-85q0 -18 12.5 -30.5t29.5 -12.5v-213v-43v-213q0 -18 12.5 -30.5
t30.5 -12.5h768q18 0 30.5 12.5t12.5 30.5v215v43v213q17 0 29.5 12.5t12.5 30.5v85q0 18 -12.5 30.5t-29.5 12.5zM286 730q17 30 56.5 36t77.5 -15q51 -30 58 -79l-13 -32h-60h-108q-16 21 -19 45.5t8 44.5zM85 512v85h361q-27 -50 -56 -85h-305zM491 0h-363v213h363v-213z
M491 256h-363v213h228q-12 -14 -24.5 -26t-18.5 -18l-6 -5q-6 -6 -7 -14.5t5 -15.5q3 -6 11 -6q8 -3 19 4l5 4q5 5 12.5 12t16.5 16t21.5 22.5t23.5 26.5h77v-213zM491 512h-47q17 23 47 79v-79zM602 751q38 22 77 15.5t57 -36.5q12 -21 9 -44.5t-18 -45.5h-108h-62l-13 32
q7 49 58 79zM533 591q23 -46 47 -79h-47v79zM896 0h-363v213h363v-213zM896 256h-363v213h79q19 -23 37.5 -42.5t28.5 -28t13 -10.5q11 -7 19 -4q9 4 11 6q6 7 5.5 16t-7.5 14q-21 17 -49 49h226v-213zM939 512h-305q-29 35 -56 85h361v-85z" />
    <glyph glyph-name="uniE647" unicode="&#xe647;" 
d="M965 746l-634 -634l-272 272l-45 -45l272 -272l45 -45l45 45l634 634z" />
    <glyph glyph-name="uniE648" unicode="&#xe648;" 
d="M708 419v319q-6 3 -18 8.5t-49 16t-75 15.5t-93 1t-107 -22zM738 231v494q8 -4 20.5 -11t47.5 -32t64.5 -55.5t60.5 -81t46 -107.5zM638 88l344 320q2 -4 5.5 -12t9.5 -37t5.5 -62.5t-13 -90t-37.5 -118.5h-314zM462 47h465q-2 -6 -7 -16.5t-25.5 -40t-47 -55t-74 -54.5
t-103.5 -47zM310 149v-300q5 -3 14.5 -8t41.5 -15.5t67.5 -15.5t91 -3t113.5 17zM41 133l236 209v-475q-6 2 -16 6.5t-39.5 24.5t-57 47t-62.5 77t-61 111zM35 166q-2 7 -5 19.5t-8.5 50.5t-5.5 74.5t10 86t31 91.5h324zM77 521q3 7 8.5 17.5t27.5 41t48.5 57t72 58
t97.5 51.5l221 -225h-475z" />
    <glyph glyph-name="uniE649" unicode="&#xe649;" 
d="M884.5 547q-10.5 12 -25.5 12h-534q-14 0 -24.5 -12t-10.5 -30v-622q0 -17 10.5 -29.5t24.5 -12.5h410q4 0 18 12.5t31.5 31t37.5 41.5t36 44t26.5 36.5t10.5 21.5v477q0 18 -10.5 30zM341 264q0 7 5 12.5t13 5.5h467q7 0 12.5 -5.5t5.5 -12.5v-15q0 -7 -5.5 -12.5
t-12.5 -5.5h-467q-8 0 -13 5.5t-5 12.5v15zM844 122q0 -7 -5 -12.5t-13 -5.5h-467q-7 0 -12.5 5.5t-5.5 12.5v14q0 8 5.5 13.5t12.5 5.5h467q8 0 13 -5.5t5 -13.5v-14zM844 376q0 -8 -5 -13t-13 -5h-467q-7 0 -12.5 5t-5.5 13v14q0 8 5.5 13.5t12.5 5.5h467q8 0 13 -5.5
t5 -13.5v-14zM227 618h540v83q0 7 -5 12t-12 5h-604q-7 0 -12 -5t-5 -12v-767q0 -7 5 -12.5t12 -5.5h81v702z" />
    <glyph glyph-name="uniE64A" unicode="&#xe64a;" 
d="M512 896q-104 0 -199 -40.5t-163.5 -109t-109 -163.5t-40.5 -199t40.5 -199t109 -163.5t163.5 -109t199 -40.5t199 40.5t163.5 109t109 163.5t40.5 199t-40.5 199t-109 163.5t-163.5 109t-199 40.5zM512 -78q-94 0 -179.5 37t-147 98.5t-98.5 147t-37 179.5t37 179.5
t98.5 147t147 98.5t179.5 37t179.5 -37t147 -98.5t98.5 -147t37 -179.5t-37 -179.5t-98.5 -147t-147 -98.5t-179.5 -37zM512 101q-26 0 -44.5 18.5t-18.5 45t18.5 45t44.5 18.5t44.5 -18.5t18.5 -45t-18.5 -45t-44.5 -18.5zM512 291q-13 0 -22.5 18.5t-9.5 45.5l-31 285
q0 27 18.5 45.5t44.5 18.5t44.5 -18.5t18.5 -45.5l-31 -285q0 -27 -9.5 -45.5t-22.5 -18.5z" />
    <glyph glyph-name="uniE64B" unicode="&#xe64b;" 
d="M513 819q-118 0 -218 -58t-158.5 -158t-58.5 -218t58.5 -218t158.5 -158t218 -58t218 58t158 158t58 218t-58 218t-158 158t-218 58zM513 -8q-107 0 -197.5 52.5t-143 143t-52.5 197.5t52.5 197.5t143 143t197.5 52.5t197.5 -52.5t143 -143t52.5 -197.5t-52.5 -197.5
t-143 -143t-197.5 -52.5zM434 140l-209 209l47 46l162 -162l364 364l46 -47z" />
    <glyph glyph-name="uniE64C" unicode="&#xe64c;" 
d="M513 819q-118 0 -218 -58t-158.5 -158t-58.5 -218t58.5 -218t158.5 -158t218 -58t218 58t158 158t58 218t-58 218t-158 158t-218 58zM513 -8q-107 0 -197.5 52.5t-143 143t-52.5 197.5t52.5 197.5t143 143t197.5 52.5t197.5 -52.5t143 -143t52.5 -197.5t-52.5 -197.5
t-143 -143t-197.5 -52.5z" />
    <glyph glyph-name="uniE64D" unicode="&#xe64d;" 
d="M911 139q-5 31 -17.5 61.5t-25 50t-27 38t-19.5 23.5l-9 9q3 29 1 50t-7 34t-10.5 20t-9.5 10l-4 3q-2 62 -18.5 112.5t-39.5 81.5t-54 53.5t-57 32.5t-54 15.5t-38.5 6t-17.5 0.5q-6 0 -16.5 -0.5t-39 -6t-54 -15.5t-57 -32.5t-54.5 -53.5t-39.5 -81.5t-17.5 -112.5
q-2 -1 -4.5 -3t-9.5 -10t-10.5 -20.5t-7 -34t0.5 -49.5l-9 -9q-5 -5 -19.5 -23.5t-26.5 -38t-24.5 -50t-17.5 -61.5q-1 -4 -1 -10t1 -22t3.5 -28t9 -21t15.5 -8t25 17t37 50q23 -62 64 -117q-3 -1 -8 -3.5t-17.5 -10t-21.5 -17t-16 -26t-5 -34.5q0 -3 1 -8t9 -17t23 -21.5
t47.5 -16t77.5 -5.5q13 1 32.5 4t59.5 17t55 36h30q15 -22 55 -36t59.5 -17t32.5 -4q45 -1 78 5.5t47.5 15.5t23 21.5t9 17.5t0.5 8q6 56 -58 86l-10 5q19 24 35 53.5t22.5 46t6.5 17.5q72 -116 88 -34q3 17 3 56z" />
    <glyph glyph-name="uniE64E" unicode="&#xe64e;" 
d="M998 408l-336 49l-150 302l-150 -302l-336 -49l243 -235l-57 -332l300 157l300 -157l-57 332zM660 363l-261 -237h261v-35h-343v35l260 237h-244v32h327v-32z" />
    <glyph glyph-name="uniE64F" unicode="&#xe64f;" 
d="M1023 425q0 -117 -68.5 -216.5t-186 -157.5t-256.5 -58q-115 0 -219 42l-193 -124l30 226q-61 59 -95 133t-34 155q0 117 68.5 216.5t186 157.5t256.5 58t256.5 -58t186 -157.5t68.5 -216.5zM159 2l129 90l20 2q43 -16 66 -24t62 -16.5t72 -8.5q93 0 179 31t147.5 83
t98 121.5t36.5 144t-36.5 144t-98 121t-147.5 82.5t-179.5 31t-178 -31t-144.5 -82.5t-95.5 -121t-35.5 -144.5q0 -145 106 -241l22 -37zM228 445q0 -25 17.5 -42.5t42.5 -17.5t42.5 17.5t17.5 42.5t-17.5 42.5t-42.5 17.5t-42.5 -17.5t-17.5 -42.5zM466 445
q0 -25 17.5 -42.5t42.5 -17.5t43 17.5t18 42.5t-18 42.5t-43 17.5t-42.5 -17.5t-17.5 -42.5zM704 445q0 -25 18 -42.5t42.5 -17.5t42.5 17.5t18 42.5t-18 42.5t-42.5 17.5t-42.5 -17.5t-18 -42.5z" />
    <glyph glyph-name="uniE650" unicode="&#xe650;" 
d="M165 -62v56q0 121 86 207t208 86h131q121 0 207 -86t86 -207v-56h66v53q0 121 -75.5 216.5t-191.5 128.5q53 38 84 96.5t31 125.5q0 113 -80 192.5t-192.5 79.5t-192 -79.5t-79.5 -192.5q0 -66 30 -124t82 -96q-116 -31 -191 -127t-75 -220v-53h66zM318 558.5
q0 85.5 60.5 146t146 60.5t146 -60.5t60.5 -146t-60.5 -146t-146 -60.5t-146 60.5t-60.5 146z" />
    <glyph glyph-name="uniE651" unicode="&#xe651;" 
d="M957 171q0 1 -1 3t-3 4q-4 5 -9 8v2q0 1 1 1h-293q-12 0 -20 -8t-8 -20t8 -20t20 -8h213q-48 -101 -143 -162.5t-210 -61.5q-147 0 -257 96.5t-130 239.5h-57q14 -109 76 -198.5t159 -141.5t209 -52q124 0 228.5 63t162.5 168v-203q0 -11 8.5 -19.5t20 -8.5t19.5 8.5
t8 19.5v280q0 4 -2 10zM80 416v-2l-1 -1h293q12 0 20 8t8 19.5t-8 20t-20 8.5h-214q48 101 143.5 162t210.5 61q147 0 256.5 -96t130.5 -239h56q-13 109 -75 198.5t-159 141t-209 51.5q-124 0 -228.5 -63t-163.5 -168v203q0 12 -8 20t-19.5 8t-20 -8t-8.5 -20v-279
q0 -5 2 -10q1 -1 2 -3t3 -4q4 -5 9 -8z" />
    <glyph glyph-name="uniE652" unicode="&#xe652;" 
d="M623 -19l-1 -13q0 -51 35.5 -86.5t86 -35.5t86 35.5t35.5 86t-35.5 86t-86.5 35.5q-31 0 -58 -15t-44 -41l-258 202q14 27 14 55q0 16 -6 35l263 205q37 -40 89 -40q51 0 86.5 36t35.5 86t-35.5 86t-86 36t-86 -36t-35.5 -86q0 -16 5 -35l-263 -205q-36 39 -89 39
q-50 0 -85.5 -35.5t-35.5 -86t35.5 -86t85.5 -35.5q40 0 74 25z" />
    <glyph glyph-name="uniE653" unicode="&#xe653;" 
d="M576 352h139v-20h-139v20zM100 832v-479q0 -105 69 -160q191 -153 263 -212q41 -32 73.5 -28t52.5 16t20 15l278 213q3 1 7.5 4t16 14.5t20.5 25.5t16.5 38t7.5 51v502h-824zM261 722h56q-6 11 -13 23l16 8q8 -13 15 -27l-8 -4h55v-16h-121v16zM252 662h42q-11 18 -21 30
l14 10q9 -10 22 -29l-14 -11h34q14 20 26 40l18 -10q-12 -16 -24 -30h40v-17h-137v17zM331 597v-68q0 -27 -26 -27h-26q-1 9 -2 20q15 -2 23 -2q12 0 12 14v63h-52v17h52v24h19v-24h51v-17h-51zM380 548l-17 -12q-11 20 -24 38l15 10q15 -20 26 -36zM279 585l18 -8
q-14 -29 -28 -53q-7 5 -17 10q13 19 27 51zM509 324h-168l-13 -32h151v-20l-69 -59q17 -9 36 -18l-13 -19q-65 34 -127 62l11 18q34 -16 74 -34l59 50h-146v19l13 33h-62v19h70l14 36h-68v20h75l14 34h24l-14 -34h123v-20h-131l-14 -36h161v-19zM511 634h-37v-136h-20v136
h-38v-13q0 -79 -38 -124q-6 8 -14 17q34 36 34 108v108q53 0 99 11l6 -20q-51 -7 -87 -9v-61h95v-17zM774 232h-115v-22q0 -30 -32 -30q-15 0 -38 1q-1 8 -3 21q21 -3 37 -3t16 14v19h-120v17h120v14l63 17h-160v17h196v-22l-79 -23v-3h115v-17zM622 425l19 11
q12 -16 20 -28l-10 -5h121v-18h-250v18h115q-7 11 -15 22zM576 316v-8h-19v61h178v-61h-20v8h-139zM775 581h-117v-48q0 -31 -32 -32h-45q-1 12 -4 24q29 -2 44 -2q16 0 16 17v41h-117v20h117v47h-99v20h99v47q-50 -2 -100 -3q-2 10 -4 21q132 2 215 9l3 -21q-45 -3 -93 -5
v-48h95v-20h-95v-47h117v-20z" />
    <glyph glyph-name="uniE654" unicode="&#xe654;" 
d="M811 832h-598q-19 0 -32 -13.5t-13 -31.5v-802q0 -19 13 -32t32 -13h598q19 0 32 13t13 32v802q0 18 -13 31.5t-32 13.5zM811 787v-596h-598v596h598zM213 -15v161h598v-161h-598zM213 -15zM460 71q0 -22 15 -37t37 -15t37 15t15 37t-15 37t-37 15t-37 -15t-15 -37z
M460 71zM644 447h125q1 12 1 26q0 63 -31 117q33 89 -8 130q-19 20 -68 16.5t-108 -30.5q-9 1 -18 1q-81 0 -144.5 -50t-82.5 -127q52 67 119 99q-5 -4 -34 -34q-46 -45 -79.5 -99.5t-47.5 -100.5t-14 -83t16 -53q49 -49 161 6q49 -25 106 -25q76 0 136.5 44t84.5 114h-127
q-13 -25 -37 -39.5t-53 -14.5t-53 14.5t-37 39.5q-13 23 -13 48v1h206v0zM439 508q2 39 30.5 66t67.5 27t67.5 -27t30.5 -66h-196v0zM730 694q26 -27 2 -93q-40 62 -109 89q77 33 107 4v0zM303 267q-34 34 14 128q28 -79 99 -122q-82 -37 -113 -6v0zM303 267z" />
    <glyph glyph-name="uniE655" unicode="&#xe655;" 
d="M600 240q0 4 -4 4q-1 0 -2 -1l-100 -103l-54 54q-1 1 -3 1q-3 0 -3 -4q0 -1 1 -3l56 -56q2 -2 3.5 -2t2.5 2l102 106q1 1 1 2zM186 395h-29l-10 28l-11 -28h-28l23 -18l-11 -32l27 20l26 -20l-10 32zM166 355l-17 12l-2 2l-2 -2l-18 -12l7 21l1 2l-2 2l-15 11h21l1 2
l7 20l7 -20l1 -2h20l-14 -11l-2 -2v-2zM908 395h-28l-11 28l-11 -28h-28l23 -18l-10 -32l26 20l26 -20l-10 32zM889 355l-18 12l-2 2l-2 -2l-18 -12l7 21l1 2l-2 2l-14 11h20l1 2l7 20l7 -20l1 -2h20l-14 -11l-2 -2l1 -2zM308 680l-4 -37l3 -4l29 21l-3 5l-21 -15l3 37l-3 4
l-26 -20l3 -4zM344 703l-7 -37l2 -4l31 18l-3 5l-22 -13l8 37l-3 4l-28 -16l3 -5zM393 688q14 6 12 20l-8 -2q2 -8 -6 -12q-10 -4 -16 9q-5 12 6 17q6 2 11 -3l7 4q-8 10 -21 5q-18 -8 -10 -26q7 -18 25 -12zM425 735q10 3 11 -5q-1 -2 -13 -7q-13 -6 -11 -16q4 -10 15 -7
q12 3 15 12q1 -5 3 -6l8 2q-3 2 -4 7q-3 11 -4 15q-4 16 -21 11q-15 -4 -15 -16l8 1q0 7 8 9zM438 726l1 -5q2 -11 -10 -15q-8 -2 -9 3q-2 6 8 10q8 3 10 7zM461 708l8 2l-6 38l-8 -2zM462 755l-1 8l-8 -1l1 -8zM473 743l6 1l3 -33l8 1l-3 32l9 1l-1 6l-8 -1l-1 5q-1 7 5 7
q3 0 5 -1l2 6q-4 1 -9 1q-12 -1 -11 -13l1 -5l-7 -1zM519 712q9 0 13 7v-7h8l1 39h-8l-1 -23q-1 -10 -10 -11q-9 1 -9 11v23l-7 1l-1 -25q0 -15 14 -15zM554 720l9 -1l-1 -10l-10 1zM591 702q15 -4 21 9l-8 3q-3 -8 -11 -6q-11 3 -8 16t14 11q7 -2 8 -9h8q-1 12 -14 16
q-19 4 -24 -16q-4 -19 14 -24zM631 689q18 -6 26 12q6 18 -10 26q-18 6 -26 -12q-6 -18 10 -26zM628 712q6 13 16 9q10 -5 5 -17q-5 -13 -15 -9t-6 17zM664 677l12 19q6 8 13 4t1 -12l-12 -20l7 -4l12 19q6 8 13 4t1 -13l-11 -19l7 -4l12 20q8 14 -3 20q-8 5 -15 0
q2 8 -6 13q-7 4 -15 0l4 5l-7 4l-20 -32zM276 657l-6 8q-24 -16 -52 -52q-56 -72 -76 -169l10 -2q8 42 24.5 80t31.5 60.5t32.5 42t24.5 25t11 7.5zM746 665l-6 -8q4 -2 11 -7.5t24.5 -25t32.5 -42t31.5 -60.5t24.5 -80l10 2q-9 43 -26 82t-32.5 62.5t-33.5 43t-25.5 25.5
t-10.5 8zM276 126q-1 -4 -2 -7q5 0 10 1l-9 -14l5 -4l14 20q5 1 11 3l-4 6q-13 -5 -25 -5zM295 93l-6 4l-3 -6l-23 15l-4 -5l23 -15l-8 -12l6 -4l8 12l23 -16l3 5l-23 16zM313 122l-9 -13q-6 2 -14 4q0 -4 -1 -7q6 -1 11 -3l-1 -1q-6 -8 2 -13l8 -5q7 -5 12 0q3 2 6 5
q-2 3 -5 6q-2 -3 -4 -5q-3 -3 -7 0l-4 3q-4 3 -1 6l1 3q13 -2 24 -2l-1 6q-10 0 -19 2l7 10zM359 92q-2 -11 -4 -21l8 -2l3 22zM346 86q0 7 -1 11h-7q1 -11 1 -21h8q0 3 -1 10zM385 78q-10 -7 -19 -12l4 -5q10 5 19 12zM379 45l-56 27l3 7l56 -28zM359 52l-7 -3l1 -3l2 -4
q5 -12 7 -17l7 3l-3 6q-5 11 -7 18zM315 54q1 -3 2 -7q14 3 26 7l-3 7q-13 -5 -25 -7zM393 23l4 12l7 -2l2 5l-8 3l3 7l6 -1l2 5l-15 4l2 2q2 2 4 3l12 -3l2 5l-10 3q2 2 4 6h1l-6 3q-6 -9 -14 -15q1 -3 2 -7l-1 -1l5 -2l-3 -7l-7 2l-2 -6l8 -2l-4 -11q0 -3 -3 -5l2 -6l1 1
l2 1q6 1 11 2l2 6q-5 -1 -9 -2zM450 58l-32 10l-14 -47q0 -3 -3 -5l2 -6q2 1 5 1h3q5 0 9 1q0 2 1 6q-2 0 -7 -1h-4l5 18l5 -2q-1 -19 15 -31q1 1 3 2q1 2 2 3q-7 4 -10 10q4 1 10 2l2 1l-2 6l-12 -4q-2 4 -2 9l15 -4zM436 35l-19 6l2 7l19 -6zM421 53l2 7l19 -6l-2 -7z
M450 22l1 -1q1 -4 1 -6l8 6l-3 -25l7 -1l3 33h1q5 5 7 8l-5 4q-10 -11 -20 -18zM481 52v-6l33 -4v7zM471 58q-7 -8 -17 -14q1 -3 2 -7q10 6 21 16zM476 27l20 -3l-2 -19q0 -5 -6 -5q-6 1 -9 2q1 -4 1 -7q10 -1 11 -1q10 -1 10 8l3 22l10 -2l1 7l-39 4v-6zM569 7l7 1l-2 19
l-46 -4l2 -20l6 1l-1 13l32 3zM523 22q4 4 14 13l-4 4l-14 -12zM534 46q-2 1 -7 4q-2 2 -4 3l-4 -5q2 -1 6 -4q3 -2 5 -3zM544 56q-2 -9 -9 -16l6 -4q4 5 5 9l8 1v-3q-2 -9 -18 -13q3 -4 4 -6q15 6 18 13q5 -7 21 -9l3 6q-17 1 -22 10q1 1 1 2l10 1l-3 -6h3q3 -1 4 -1l3 8v5
l-29 -2l2 4zM555 8v2v6h-7v-6q0 -9 -26 -13q1 -2 3 -5l1 -1q21 5 26 12q11 -2 28 -7l3 6l-12 3q-11 2 -16 3zM603 23l-4 -5q8 -5 10 -7l5 5l-2 1q-5 4 -9 6zM632 21l6 -2q3 7 5 12l-6 2q-2 -4 -5 -11v-1zM628 16l-5 14l22 6l-2 6l-21 -6l-2 7l15 4l-2 5q4 -1 10 -2
q0 2 0.5 4.5t0.5 3.5q-17 0 -30 8l1 3l-8 -2q-5 -14 -23 -28l3 -3l2 -2q4 3 7 6l1 -4l16 5l2 -7l-22 -6l2 -6l21 6l4 -14l-25 -8l2 -5l57 17l-1 5zM599 43q8 8 12 17q9 -5 20 -8zM711 71l-15 -7v1l7 14l-2 6l-33 -17l2 -5l24 12l-6 -11l2 -4l-19 -9l3 -5l19 9l3 -8
q2 -4 -2 -5q-4 -2 -7 -4q1 -1 3 -4q0 -1 1 -1q5 2 9 4q8 4 4 11l-5 10l15 7zM666 75l35 17l-3 5l-33 -15v6l-8 -3q1 -1 1 -3v-4l-15 -7l3 -6l12 6q0 -14 -4 -27q1 -1 2.5 -3t2.5 -3q1 1 2 4.5t1 5.5l12 -24l6 3l-15 32q1 8 1 16zM750 135l-15 -10q0 2 -1 4l-6 -3q2 -6 1 -15
l6 2v6l2 1l8 -2l4 4l-6 2l10 7zM734 75l-2 3l32 22l-8 12l-38 -26l-2 4l37 25l4 -5l6 4l-7 10l-21 -15l-4 3l-5 -5l3 -2l-22 -15l7 -9l5 3l19 -27l6 4l-2 2l28 19l1 -2l6 4l-10 14zM726 86l26 18l3 -4l-26 -18zM740 67l-3 4l28 19l2 -4zM709 92l2 10l1 1l8 -2l4 4v1h-2
q-3 1 -4 1l10 7l-3 4l-15 -10v5l-6 -3q1 -8 -1 -18h6zM823 658v1h-1q0 1 -1 1v0h1q1 -1 1 -2zM512 829q-90 0 -172.5 -35.5t-142 -95t-95 -142t-35.5 -172.5t35.5 -172.5t95 -142t142 -95t172.5 -35.5t172.5 35.5t142 95t95 142t35.5 172.5t-35.5 172.5t-95 142t-142 95
t-172.5 35.5zM896 567q1 -1 2 -4q-2 -1 -4 0q2 3 2 4zM809 688q2 -1 2 -2h-1v1q-1 0 -1 1v0zM725 752q0 -3 -6 -7q-5 11 -5 12v2q5 -3 11 -7zM648 -19q-1 1 -1 2t0.5 3t1.5 3q0 -1 1.5 -1.5t2.5 -1.5v-2v-1q-4 -2 -5 -2zM670 -11q1 1 1.5 2t0.5 2v0l2 -2zM678 -8q1 1 1 2v1
l-1 6h1q0 -2 1 -4.5t1 -3.5h-1q-1 0 -2 -1zM690 -2v-1q-1 0 -2 -1h-1q-3 2 -4 3l6 3q4 2 6 2q1 0 4 -2q-4 -2 -9 -4zM722 14h-2l-1 -2v5l4 -2q-1 0 -1 -1zM732 20q2 1 3 2l-1 -1zM794 81q-25 -24 -56 -44q-6 -4 -7 -7l-1 1q-53 -27 -66 -32v-2v-6q-2 1 -3 2q0 2 1 5
q-5 -2 -6 -2q-56 -21 -114 -25q-72 -4 -139 14q-122 34 -204.5 130.5t-96.5 221.5q-7 61 3 119q24 129 115 220q108 107 259 120q53 5 106 -5q94 -16 171 -73q3 -2 4 -3l3 1q-2 2 -3 4q1 1 1.5 3t1.5 2l3 -2v-3l1 -2q8 -6 9 -7v-4l-1 -2l1 -1h2q1 0 1 2t1 3q8 -3 9 -3
q2 -1 5 -3l-2 -3q-2 -1 -2 -2q-1 0 -3 2q-1 -5 2 -8l15 -15l14 -14l3 -3q0 2 1 4q1 0 9 -3l2 2q3 -3 6 -7q-1 -1 -2 -3q-4 7 -10 5h-4q3 -3 4 -3.5t8 -3.5q-1 -3 -2 -5l2 -3q20 -27 28 -39l4 -4q-1 -1 2 -5q12 -22 22 -43q0 -1 4 -7q0 -2 2 -7q24 -62 29 -126q3 -54 -7 -104
q-25 -133 -125 -227zM690 427h54v-55h-54v55zM626 427h54v-55h-54v55zM512 695q-129 0 -220 -91t-91 -220t91 -220t220 -91t220 91t91 220t-91 220t-220 91zM512 670q84 0 154 -45t105 -119h-518q35 74 105 119t154 45zM690 362v-74h-10v74h-54v-12h-9v88h63v44h10v-44h63
v-88h-9v12h-54zM470 294h-14q0 4 -2 10h13q11 -1 10 10v44h-36v10h79v-10h-34v-44q0 -20 -16 -20zM447 310q0 1 -3 3q-2 1 -3 1q10 17 17 35l7 -4q-1 -3 -4 -8q-9 -18 -14 -27zM520 460v-10h-34v-22h27v-10h-66v10h29v22h-35v10h35v21h10v-21h34zM593 450v-12l-9 -35
q-1 1 -4 2t-4 2l9 33h-46q-4 -18 -11 -38q-4 3 -9 4q14 36 22 75l8 -2q-1 -4 -3 -13q-3 -11 -4 -16h51zM511 398v-9h-61v9h61zM502 349q8 -13 15 -27l-8 -5q-3 8 -9 21q-3 4 -3 6zM550 391v35h9v-29q8 -70 39 -97q-3 -4 -6 -9q-29 29 -37 84q-5 -49 -41 -86q-3 4 -7 9
q41 40 43 93zM276 399v11h28v-81q10 -21 35 -21q26 -1 92 1q0 -3 -1 -7t-1 -5q-75 0 -92 1q-27 0 -38 22q-9 -10 -19 -28l-6 9q11 16 21 28v70h-19zM323 454v9h105v-9h-44q-10 -28 -16 -39h9v-97h-9v96q-16 -32 -49 -64q-1 1 -3 4q-1 1 -1 2l-2 2q43 40 61 96h-51zM305 435
q-10 19 -20 35l7 6q8 -12 21 -34zM424 357q-3 3 -7 9q-12 17 -29 39l7 6q17 -21 36 -46zM767 256q-1 -4 -3 -7q-1 -1 -2 -3.5t-3 -4.5q-1 -3 -2 -5q-1 0 -1 -1l-1 -1q-24 -40 -61 -70v-1q-2 -1 -5 -3q-1 -1 -3 -2.5t-3 -2.5q-3 -3 -7 -5l-1 -1q-74 -51 -163 -51t-163 51
l-1 1q-4 2 -7 5l-3 2l-3 3q-3 2 -5 3v1q-37 30 -61 70q-1 1 -1 1.5t-1 0.5q-1 2 -2.5 4.5t-2.5 5t-2 3.5q-2 3 -3 7q-1 0 -1 2q-3 4 -4 8h520q-1 -3 -4 -8q0 -1 -1 -2z" />
    <glyph glyph-name="uniE656" unicode="&#xe656;" 
d="M600 240q0 4 -4 4q-1 0 -2 -1l-100 -103l-54 54q-1 1 -3 1q-3 0 -3 -4q0 -1 1 -3l56 -56q2 -2 3.5 -2t2.5 2l102 106q1 1 1 2zM186 395h-29l-10 28l-11 -28h-28l23 -18l-11 -32l27 20l26 -20l-10 32zM166 355l-17 12l-2 2l-2 -2l-18 -12l7 21l1 2l-2 2l-15 11h21l1 2
l7 20l7 -20l1 -2h20l-14 -11l-2 -2v-2zM908 395h-28l-11 28l-11 -28h-28l23 -18l-10 -32l26 20l26 -20l-10 32zM889 355l-18 12l-2 2l-2 -2l-18 -12l7 21l1 2l-2 2l-14 11h20l1 2l7 20l7 -20l1 -2h20l-14 -11l-2 -2l1 -2zM308 680l-4 -37l3 -4l29 21l-3 5l-21 -15l3 37l-3 4
l-26 -20l3 -4zM344 703l-7 -37l2 -4l31 18l-3 5l-22 -13l8 37l-3 4l-28 -16l3 -5zM393 688q14 6 12 20l-8 -2q2 -8 -6 -12q-10 -4 -16 9q-5 12 6 17q6 2 11 -3l7 4q-8 10 -21 5q-18 -8 -10 -26q7 -18 25 -12zM425 735q10 3 11 -5q-1 -2 -13 -7q-13 -6 -11 -16q4 -10 15 -7
q12 3 15 12q1 -5 3 -6l8 2q-3 2 -4 7q-3 11 -4 15q-4 16 -21 11q-15 -4 -15 -16l8 1q0 7 8 9zM438 726l1 -5q2 -11 -10 -15q-8 -2 -9 3q-2 6 8 10q8 3 10 7zM461 708l8 2l-6 38l-8 -2zM462 755l-1 8l-8 -1l1 -8zM473 743l6 1l3 -33l8 1l-3 32l9 1l-1 6l-8 -1l-1 5q-1 7 5 7
q3 0 5 -1l2 6q-4 1 -9 1q-12 -1 -11 -13l1 -5l-7 -1zM519 712q9 0 13 7v-7h8l1 39h-8l-1 -23q-1 -10 -10 -11q-9 1 -9 11v23l-7 1l-1 -25q0 -15 14 -15zM554 720l9 -1l-1 -10l-10 1zM591 702q15 -4 21 9l-8 3q-3 -8 -11 -6q-11 3 -8 16t14 11q7 -2 8 -9h8q-1 12 -14 16
q-19 4 -24 -16q-4 -19 14 -24zM631 689q18 -6 26 12q6 18 -10 26q-18 6 -26 -12q-6 -18 10 -26zM628 712q6 13 16 9q10 -5 5 -17q-5 -13 -15 -9t-6 17zM664 677l12 19q6 8 13 4t1 -12l-12 -20l7 -4l12 19q6 8 13 4t1 -13l-11 -19l7 -4l12 20q8 14 -3 20q-8 5 -15 0
q2 8 -6 13q-7 4 -15 0l4 5l-7 4l-20 -32zM276 657l-6 8q-24 -16 -52 -52q-56 -72 -76 -169l10 -2q8 42 24.5 80t31.5 60.5t32.5 42t24.5 25t11 7.5zM746 665l-6 -8q4 -2 11 -7.5t24.5 -25t32.5 -42t31.5 -60.5t24.5 -80l10 2q-9 43 -26 82t-32.5 62.5t-33.5 43t-25.5 25.5
t-10.5 8zM276 126q-1 -4 -2 -7q5 0 10 1l-9 -14l5 -4l14 20q5 1 11 3l-4 6q-13 -5 -25 -5zM295 93l-6 4l-3 -6l-23 15l-4 -5l23 -15l-8 -12l6 -4l8 12l23 -16l3 5l-23 16zM313 122l-9 -13q-6 2 -14 4q0 -4 -1 -7q6 -1 11 -3l-1 -1q-6 -8 2 -13l8 -5q7 -5 12 0q3 2 6 5
q-2 3 -5 6q-2 -3 -4 -5q-3 -3 -7 0l-4 3q-4 3 -1 6l1 3q13 -2 24 -2l-1 6q-10 0 -19 2l7 10zM359 92q-2 -11 -4 -21l8 -2l3 22zM346 86q0 7 -1 11h-7q1 -11 1 -21h8q0 3 -1 10zM385 78q-10 -7 -19 -12l4 -5q10 5 19 12zM379 45l-56 27l3 7l56 -28zM359 52l-7 -3l1 -3l2 -4
q5 -12 7 -17l7 3l-3 6q-5 11 -7 18zM315 54q1 -3 2 -7q14 3 26 7l-3 7q-13 -5 -25 -7zM393 23l4 12l7 -2l2 5l-8 3l3 7l6 -1l2 5l-15 4l2 2q2 2 4 3l12 -3l2 5l-10 3q2 2 4 6h1l-6 3q-6 -9 -14 -15q1 -3 2 -7l-1 -1l5 -2l-3 -7l-7 2l-2 -6l8 -2l-4 -11q0 -3 -3 -5l2 -6l1 1
l2 1q6 1 11 2l2 6q-5 -1 -9 -2zM450 58l-32 10l-14 -47q0 -3 -3 -5l2 -6q2 1 5 1h3q5 0 9 1q0 2 1 6q-2 0 -7 -1h-4l5 18l5 -2q-1 -19 15 -31q1 1 3 2q1 2 2 3q-7 4 -10 10q4 1 10 2l2 1l-2 6l-12 -4q-2 4 -2 9l15 -4zM436 35l-19 6l2 7l19 -6zM421 53l2 7l19 -6l-2 -7z
M450 22l1 -1q1 -4 1 -6l8 6l-3 -25l7 -1l3 33h1q5 5 7 8l-5 4q-10 -11 -20 -18zM481 52v-6l33 -4v7zM471 58q-7 -8 -17 -14q1 -3 2 -7q10 6 21 16zM476 27l20 -3l-2 -19q0 -5 -6 -5q-6 1 -9 2q1 -4 1 -7q10 -1 11 -1q10 -1 10 8l3 22l10 -2l1 7l-39 4v-6zM569 7l7 1l-2 19
l-46 -4l2 -20l6 1l-1 13l32 3zM523 22q4 4 14 13l-4 4l-14 -12zM534 46q-2 1 -7 4q-2 2 -4 3l-4 -5q2 -1 6 -4q3 -2 5 -3zM544 56q-2 -9 -9 -16l6 -4q4 5 5 9l8 1v-3q-2 -9 -18 -13q3 -4 4 -6q15 6 18 13q5 -7 21 -9l3 6q-17 1 -22 10q1 1 1 2l10 1l-3 -6h3q3 -1 4 -1l3 8v5
l-29 -2l2 4zM555 8v2v6h-7v-6q0 -9 -26 -13q1 -2 3 -5l1 -1q21 5 26 12q11 -2 28 -7l3 6l-12 3q-11 2 -16 3zM603 23l-4 -5q8 -5 10 -7l5 5l-2 1q-5 4 -9 6zM632 21l6 -2q3 7 5 12l-6 2q-2 -4 -5 -11v-1zM628 16l-5 14l22 6l-2 6l-21 -6l-2 7l15 4l-2 5q4 -1 10 -2
q0 2 0.5 4.5t0.5 3.5q-17 0 -30 8l1 3l-8 -2q-5 -14 -23 -28l3 -3l2 -2q4 3 7 6l1 -4l16 5l2 -7l-22 -6l2 -6l21 6l4 -14l-25 -8l2 -5l57 17l-1 5zM599 43q8 8 12 17q9 -5 20 -8zM711 71l-15 -7v1l7 14l-2 6l-33 -17l2 -5l24 12l-6 -11l2 -4l-19 -9l3 -5l19 9l3 -8
q2 -4 -2 -5q-4 -2 -7 -4q1 -1 3 -4q0 -1 1 -1q5 2 9 4q8 4 4 11l-5 10l15 7zM666 75l35 17l-3 5l-33 -15v6l-8 -3q1 -1 1 -3v-4l-15 -7l3 -6l12 6q0 -14 -4 -27q1 -1 2.5 -3t2.5 -3q1 1 2 4.5t1 5.5l12 -24l6 3l-15 32q1 8 1 16zM750 135l-15 -10q0 2 -1 4l-6 -3q2 -6 1 -15
l6 2v6l2 1l8 -2l4 4l-6 2l10 7zM734 75l-2 3l32 22l-8 12l-38 -26l-2 4l37 25l4 -5l6 4l-7 10l-21 -15l-4 3l-5 -5l3 -2l-22 -15l7 -9l5 3l19 -27l6 4l-2 2l28 19l1 -2l6 4l-10 14zM726 86l26 18l3 -4l-26 -18zM740 67l-3 4l28 19l2 -4zM709 92l2 10l1 1l8 -2l4 4v1h-2
q-3 1 -4 1l10 7l-3 4l-15 -10v5l-6 -3q1 -8 -1 -18h6zM823 658v1h-1q0 1 -1 1v0h1q1 -1 1 -2zM512 829q-90 0 -172.5 -35.5t-142 -95t-95 -142t-35.5 -172.5t35.5 -172.5t95 -142t142 -95t172.5 -35.5t172.5 35.5t142 95t95 142t35.5 172.5t-35.5 172.5t-95 142t-142 95
t-172.5 35.5zM896 567q1 -1 2 -4q-2 -1 -4 0q2 3 2 4zM809 688q2 -1 2 -2h-1v1q-1 0 -1 1v0zM725 752q0 -3 -6 -7q-5 11 -5 12v2q5 -3 11 -7zM648 -19q-1 1 -1 2t0.5 3t1.5 3q0 -1 1.5 -1.5t2.5 -1.5v-2v-1q-4 -2 -5 -2zM670 -11q1 1 1.5 2t0.5 2v0l2 -2zM678 -8q1 1 1 2v1
l-1 6h1q0 -2 1 -4.5t1 -3.5h-1q-1 0 -2 -1zM690 -2v-1q-1 0 -2 -1h-1q-3 2 -4 3l6 3q4 2 6 2q1 0 4 -2q-4 -2 -9 -4zM722 14h-2l-1 -2v5l4 -2q-1 0 -1 -1zM732 20q2 1 3 2l-1 -1zM794 81q-25 -24 -56 -44q-6 -4 -7 -7l-1 1q-53 -27 -66 -32v-2v-6q-2 1 -3 2q0 2 1 5
q-5 -2 -6 -2q-56 -21 -114 -25q-72 -4 -139 14q-122 34 -204.5 130.5t-96.5 221.5q-7 61 3 119q24 129 115 220q108 107 259 120q53 5 106 -5q94 -16 171 -73q3 -2 4 -3l3 1q-2 2 -3 4q1 1 1.5 3t1.5 2l3 -2v-3l1 -2q8 -6 9 -7v-4l-1 -2l1 -1h2q1 0 1 2t1 3q8 -3 9 -3
q2 -1 5 -3l-2 -3q-2 -1 -2 -2q-1 0 -3 2q-1 -5 2 -8l15 -15l14 -14l3 -3q0 2 1 4q1 0 9 -3l2 2q3 -3 6 -7q-1 -1 -2 -3q-4 7 -10 5h-4q3 -3 4 -3.5t8 -3.5q-1 -3 -2 -5l2 -3q20 -27 28 -39l4 -4q-1 -1 2 -5q12 -22 22 -43q0 -1 4 -7q0 -2 2 -7q24 -62 29 -126q3 -54 -7 -104
q-25 -133 -125 -227zM512 695q-129 0 -220 -91t-91 -220t91 -220t220 -91t220 91t91 220t-91 220t-220 91zM512 670q84 0 154 -45t105 -119h-518q35 74 105 119t154 45zM629 327v74h-22v10h31v-90q15 14 28 26q0 -5 2 -12q-12 -10 -29 -25q-4 -4 -8 -10l-8 10q7 4 6 17z
M622 466l7 8q10 -10 27 -32l-7 -8q-3 4 -7 9q-13 17 -20 23zM659 313h42v165h9v-59h46v-10h-46v-96h53v-11h-104v11zM587 370v-12l-28 -45q11 -7 19 -15l-6 -8q-25 21 -52 41l6 9q13 -10 26 -22l25 42h-55v12q4 11 7 28h-19v9h21q4 16 6 31h-20v10h22q4 16 6 31l9 -1
q-2 -16 -6 -30h45v-10h-47q-2 -15 -6 -31h58v-9h-60q-1 -3 -2 -9.5t-5 -20.5h56zM441 325l-1 10q22 4 37 6v33h-33v12q7 16 18 54h-20v10h23q0 3 2 10l6 21l9 -3q0 -2 -2 -8q-4 -13 -6 -20h33v-10h-36q-8 -29 -17 -56h23v39h9v-39h21v-10h-21v-32q14 3 25 5v-10
q-5 -1 -18 -3q-5 0 -7 -1v-44h-9v42q-17 -4 -36 -6zM403 397v60h-116v10h125v-81h-112v-54q-1 -24 20 -22h75q21 -2 24 20q0 4 2 12q0 8 1 12q5 -3 8 -4q-1 -13 -3 -24q-4 -28 -30 -27h-79q-27 -1 -27 31v99h9v-32h103zM767 256q-1 -4 -3 -7q-1 -1 -2 -3.5t-3 -4.5
q-1 -3 -2 -5q-1 0 -1 -1l-1 -1q-24 -40 -61 -70v-1q-2 -1 -5 -3q-1 -1 -3 -2.5t-3 -2.5q-3 -3 -7 -5l-1 -1q-74 -51 -163 -51t-163 51l-1 1q-4 2 -7 5l-3 2l-3 3q-3 2 -5 3v1q-37 30 -61 70q-1 1 -1 1.5t-1 0.5q-1 2 -2.5 4.5t-2.5 5t-2 3.5q-2 3 -3 7q-1 0 -1 2q-3 4 -4 8
h520q-1 -3 -4 -8q0 -1 -1 -2z" />
    <glyph glyph-name="uniE657" unicode="&#xe657;" 
d="M300 432v-1v1zM300 343v1v-1zM275 453h-1h1zM274 427h1h-1zM497 440h-1h-1h-1h-78v3v21v4v0q0 4 -4 4h-1h-3h-16h-3h-1h-1q-3 0 -3 -3v0v-26v-3h-74h-2h-1q-7 -1 -7 -8v-1v-87v-1q0 -7 8 -8h1h75v-23v-11v-15v0q0 -3 3 -4h1h1h3h16h3h1q4 0 4 4v1v3v15v3v4v23h79h1
q6 0 8 6v4v24v60v5q0 4 -7 6zM384 353h-56v68h56v-68zM475 367v-14h-59v68h59v-54zM531 337h1h10h1q5 0 5 5v1v111h49v-112v-1q1 -4 4 -4h2h10h1q4 0 4 4v1v122v2q-1 5 -5 6h-3h-76h-2q-5 -1 -6 -6v-2v-121v-2q1 -4 5 -4zM623 297q0 1 -1 1q-41 27 -39 72v69v1q0 2 -3 3h-1
h-14h-1q-2 -1 -3 -3v-2v-68q3 -48 -40 -72l-1 -1q-1 -1 -1 -2v-2v-8v-1q0 -3 3 -3h1v1q34 14 49 37q16 -22 48 -37h1q0 -1 1 -1q2 0 3 3v1v9v1q0 1 -2 2zM721 445h-2h-9v22v3q0 2 -2 2h-3h-17h-2q-3 0 -3 -3v-1v-23h-50h-3q-3 0 -3 -5v0v-8v-1q0 -3 3 -4h1h26
q-6 -59 -35 -100l-1 -1v-1v-16v-1q0 -1 2 -1h1v0q23 15 37.5 45t17.5 53l4 22v-112q0 -14 -13 -18l-13 -3q-2 0 -2 -1v-1v-5v-1q0 -2 3 -3h1h22q14 0 21.5 8.5t7.5 22.5v113h9h1q3 1 4 4v1v8v1q-1 3 -3 4zM766 432h2h-2zM270 423h-2h-67h-46h-67h-2q-5 -1 -5 -5v-1v-25v0
q1 -6 6 -6h1h67h46h67h1q6 0 6 6v25v1q0 4 -5 5zM250 399h-49h-46h-48v15h48h46h49v-15zM279 449v0q-1 4 -4 4h-1h-26q4 5 5 14v1q0 4 -3 4h-1h-24v-3q-5 -14 -6 -16h-27v15v1v1q0 3 -3 3h-1h-23v0q-4 0 -4 -3v-1v-16h-28q-2 6 -5 19h-23h-1q-4 0 -4 -4v-2q2 -8 5 -13h-25
h-1q-3 0 -4 -3v-1v-1v-16v-1q1 -3 4 -4h1h18h1q4 1 4 4v0v7h147v-6v-1q1 -3 4 -4h1h19h1q4 1 4 4v1v17zM275 379v1q0 2 -3 2h-1q-20 -5 -38 -5h-148h-1q-3 0 -3 -3v-8q0 -2 2 -2h1v0h1h81v-12h-31h-51v0v0q-3 0 -3 -3v-8q0 -2 2 -3h1h1h50h31v-12h-17h-14h-51v0q-3 0 -3 -3
v-1v-6v-1q0 -3 3 -3h1h50h14h17v-4q0 -10 -12 -12l-15 -2q-6 -1 -6 -6.5t6 -5.5v-1h1h28q29 0 29 27v4h24h31h19h1q2 0 3 3v1v6v1q-1 3 -4 3v0h-19h-31h-24v12h24h31h18h1h1q2 1 3 3v8q-1 3 -3 3h-1v0h-19h-31h-24v12h38q21 0 37 3h1q2 1 2 3v0v9zM753 409zM748 432h2h16h2
q3 1 4 4v2v1v7h147v-8v-1q1 -4 4 -5h3h15h2q4 1 5 5v1v15v2q-1 6 -7 7h-1h-78v5v1q0 5 -5 5h-1h-21h-1h-1q-4 0 -5 -5v-1v-5h-77h-1q-6 -1 -6 -7v-1v-16v-1q0 -4 4 -5zM943 426q0 3 -3 3h-1h-50h-11h-76h-50h-1q-3 0 -3 -3v-1v-6v-1q0 -3 3 -3h1h50h11h76h50v0q3 0 4 3v1v6
v1zM942 358h-2h-68h-2h-49h-2h-68h-2q-5 -1 -6 -6v-2v-60v-2q1 -5 6 -6h3h67h1h51h1h67h3q5 1 6 6v2v60v2q-1 5 -6 6zM831 298h-11h-1h-44v15h56v-15zM831 327h-56v15h45h1h10v-15zM915 298h-43h-1h-12v15h56v-15zM915 327h-56v15h11h1h44v-15zM938 409h-1h-184q-5 0 -6 -5
v-1v-33v-1q1 -5 5 -5h2h182h2q4 0 5 4v3v15v15v4q-1 4 -5 4zM915 385v-8h-140v19h140v-11z" />
    <glyph glyph-name="uniE658" unicode="&#xe658;" 
d="M902 -89q0 -24 -17 -41t-41 -17h-663q-24 0 -41 17t-17 41v779q0 24 17 41t41 17h663q24 0 41 -17t17 -41v-779zM863 651q0 24 -17 41t-41 17h-585q-24 0 -41 -17t-17 -41v-701q0 -24 17 -41t41 -17h585q24 0 41 17t17 41v701zM766 574q0 8 -5 13t-12 5h-453q-7 0 -12 -5
t-5 -13v-3q0 -7 5 -12t12 -5h453q7 0 12 5t5 12v3zM766 438q0 7 -5 12t-12 5h-453q-7 0 -12 -5t-5 -12v-3q0 -7 5 -12t12 -5h453q7 0 12 5t5 12v3zM766 321q0 7 -5 12.5t-12 5.5h-453q-7 0 -12 -5.5t-5 -12.5v-3q0 -7 5 -12t12 -5h453q7 0 12 5t5 12v3zM433 205q0 7 -5 12
t-13 5h-119q-7 0 -12 -5t-5 -12v-3q0 -7 5 -12t12 -5h119q8 0 13 5t5 12v3zM746 227l-15 15q-10 10 -22.5 10.5t-21.5 -7.5l-175 -175l62 -62l175 175q8 9 7.5 21.5t-10.5 22.5zM493 50v-61h61h1z" />
    <glyph glyph-name="uniE659" unicode="&#xe659;" 
d="M299 485zM299 394v-1v1zM273 507zM273 480h1h-2h1zM503 493h-1h-1h-1h-81v3v23v3v1q0 4 -4 4h-1h-3h-17h-3h-1h-1q-3 0 -3 -3v-1v-27v-3h-77q-1 1 -1.5 1t-1.5 -1q-7 -1 -7 -8v-91v-1q0 -7 8 -8h1h78v-24v-11v-16v0q0 -3 3 -3h1h1h3h17h3h1q4 0 4 4v0v4v15v4v3v24h82h1
q6 1 8 6v5v24v63v4q0 5 -7 6zM386 404h-57v70h57v-70zM480 418v-14h-61v70h61v-56zM538 387h2h9h2q4 0 5 5v1v115h50v-115v-2q1 -4 5 -4h1h10h2q4 0 4 4v2v125v3q-1 5 -6 6h-2h-79h-2q-5 -1 -6 -7v-2v-124v-2q1 -5 5 -5zM634 346q-1 0 -1 1q-44 27 -41 75v70v1q0 3 -3 3h-1
h-15h-1q-2 0 -3 -3v-1v-70q3 -50 -41 -75l-1 -1l-2 -2v-2v-9v-1q1 -2 4 -2h1q35 15 51 39q16 -23 49 -39h1h1q2 0 3 2v2v8v2q0 1 -1 2zM734 499h-2h-8v23v2q0 3 -3 3h-3h-18h-2q-2 0 -3 -3v-2v-23h-51h-3q-4 0 -4 -5v-1v-8v-1q0 -3 4 -4h1h26q-6 -61 -36 -104v0h-1v-1v-17
v-1q1 -1 2 -1h1h1q23 16 38 47t18 54l4 23v-116q0 -14 -13 -18l-14 -3l-2 -2v-6v-1q1 -2 3 -3h1h23q15 0 23 9t8 23v117h8h2q3 1 3 4v1v9v1q0 3 -3 4zM781.5 485q0.5 0 1.5 1h-2q0 -1 0.5 -1zM268 476h-2h-69h-48h-69h-2q-5 -1 -5 -6v0v-26v0q0 -6 6 -6h1h69h48h69h1
q6 0 6 6v26v0q0 5 -5 6zM247 451h-50h-48h-50v16h50h48h50v-16zM277 502v1q0 4 -4 4h-27q3 6 5 14v1v1q0 3 -4 4h-1h-24q0 -1 -1 -4q-5 -14 -6 -16h-27v16v1v1q-1 3 -4 3h-1h-23h-1q-3 0 -4 -4v-1v-16h-28q-3 7 -6 20h-24h-1q-4 -1 -4 -4v-1l1 -1q2 -9 4 -14h-26v0
q-4 0 -4 -3v-1v-1v-17v-1q0 -3 3 -4h1h1h18h1h1q3 1 3 5v0v7h153v-7v-1q0 -3 3 -4h1h1h19h2q3 1 3 4v1v17zM273 431v0q0 3 -3 3h-1q-20 -6 -39 -6h-154h-1q-2 0 -3 -3v-7q1 -3 3 -3v0h1h84v-13h-32h-52v0h-1q-2 0 -3 -3v-7q1 -3 3 -3l1 -1v1h1h51h32v-13h-17h-15h-52v0
q-3 -1 -4 -4v-1v-6v-1q1 -3 3 -3h1h1h51h15h17v-4q1 -10 -12 -12l-16 -2q-5 -1 -5 -7t5 -6h1h1h29q29 0 29 27v4h25h33h19h1q3 0 3 3v1v6v1q0 3 -4 4v0h-19h-33h-25v13h25h33h19q0 -1 0.5 -1t0.5 1q3 0 3 3v7q0 3 -3 3h-1v0h-19h-33h-25v13h40q21 0 39 3q2 1 2 3v1v9z
M768 462h-1h1zM763 486h1h17h2q4 0 4 4v2v7h152v-7v-2q1 -4 5 -4h2h16h2q4 0 5 5v1v16v2q-1 5 -7 6h-1h-80v6v1q-1 5 -5 5h-1h-1h-22h-1q-5 0 -5 -5l-1 -1h1v-6h-80h-2q-6 -1 -6 -7v-1v-16v-2q0 -4 5 -4zM964 478v1q0 3 -3 3h-1h-52h-11h-79h-52v0q-3 0 -4 -3v-1v-6v-1
q1 -3 3 -3h1h1h51h11h79h52h1q3 0 3 3v1v6zM963 409h-2h-71h-2h-50h-2h-70h-2q-5 -1 -6 -6v-3v-61v-3q1 -5 6 -6h2h70h1h52h2h70h2q5 1 6 6v3v61v3q-1 5 -6 6zM848 347h-11h-1h-46v15h58v-15zM848 377h-58v16h47h1h10v-16zM936 347h-45h-2h-12v15h59v-15zM936 377h-59v16h12
h1h46v-16zM959 462h-1h-190h-1q-5 -1 -5 -6v-1v-34v-1q0 -5 5 -5h2h188h2q4 0 5 4v3v16v16v3q-1 4 -5 5zM936 437v-8h-146v19h146v-11z" />
    <glyph glyph-name="uniE65A" unicode="&#xe65a;" 
d="M75 686l11 39h326l-10 -39q-96 0 -99 -38q-12 11 17 -411h4q13 19 39 61q239 373 205 334q15 54 -66 54l10 39h223l-10 -39q-76 -11 -106 -65l-365 -573h-81l-32 569q2 77 -66 69zM898 48h-310l8 29q113 -5 118 68l82 306q24 47 -71 41l9 32q101 -2 160 44h47l-113 -423
q-35 -73 78 -68z" />
    <glyph glyph-name="uniE65B" unicode="&#xe65b;" 
d="M75 686l11 39h326l-10 -39q-96 0 -99 -38q-12 11 17 -412h4q13 20 39 62q239 373 205 334q15 54 -66 54l10 39h223l-10 -39q-76 -11 -106 -65l-365 -573h-81l-32 569q2 77 -66 69zM859 247h30l-65 -199h-342q13 50 29 64q76 88 186 182q102 79 117 143q18 90 -62 96
q-72 -6 -114 -67h2q11 6 31 6q42 -6 37 -50q-19 -58 -72 -61q-61 3 -46 70q43 126 210 140q156 -9 128 -143q-22 -85 -172 -164q-15 -7 -28.5 -15t-23.5 -14t-23 -16t-18 -13.5t-18 -15t-15 -13t-16 -14t-14 -13.5h117q108 -8 142 97z" />
    <glyph glyph-name="uniE65C" unicode="&#xe65c;" 
d="M75 686l11 39h326l-10 -39q-96 0 -99 -38q-12 11 17 -412h4q13 20 39 62q239 373 205 334q15 54 -66 54l10 39h223l-10 -39q-76 -11 -106 -65l-365 -573h-81l-32 569q2 77 -66 69zM663 486l2 -2q8 1 25 5q45 -5 39 -49q-18 -59 -77 -59q-54 3 -41 65q36 114 195 125
q157 -11 140 -131q-34 -105 -158 -120l-1 -3q132 -9 105 -123q-56 -143 -245 -149q-157 3 -132 117q23 64 87 73q50 -6 43 -55q-18 -56 -67 -56q-21 0 -30 9q-4 -59 84 -59q99 0 133 117q21 100 -44 108q-12 0 -28 -5h-20q-27 0 -21 20q4 15 34 18h32q72 5 106 102
q19 90 -58 99q-61 0 -103 -47z" />
    <glyph glyph-name="uniE65D" unicode="&#xe65d;" 
d="M75 686l11 39h326l-10 -39q-96 0 -99 -38q-12 11 17 -412h4q13 20 39 62q239 373 205 334q15 54 -66 54l10 39h223l-10 -39q-76 -11 -106 -65l-365 -573h-81l-32 569q2 77 -66 69zM875 48h-269l8 29q89 -6 100 68l10 35h-190l15 46l335 345h58l-93 -348h85l-12 -43h-84
l-10 -35q-31 -74 55 -68zM589 223h146l55 205h-3z" />
    <glyph glyph-name="uniE65E" unicode="&#xe65e;" 
d="M75 686l11 39h326l-10 -39q-96 0 -99 -38q-12 11 17 -412h4q13 20 39 62q239 373 205 334q15 54 -66 54l10 39h223l-10 -39q-76 -11 -106 -65l-365 -573h-81l-32 569q2 77 -66 69zM586 308l91 254q53 -11 81 -14q34 -6 64 -3q37 -3 71 3q32 3 59 14l-4 -14
q-35 -108 -187 -111q-33 -3 -56 0q-19 3 -35 11l-37 -105q51 35 118 35q162 -14 136 -166q-58 -164 -255 -167q-133 6 -114 108q21 68 84 73q52 -3 41 -55q-17 -50 -69 -50q-13 -3 -14 3l-4 -3q13 -50 71 -52q94 2 138 154q24 111 -51 117q-80 -6 -108 -64q-12 -23 -23 -23
q-18 0 -12 20q1 6 9 24q1 5 6 11z" />
    <glyph glyph-name="uniE65F" unicode="&#xe65f;" 
d="M75 686l11 39h326l-10 -39q-96 0 -99 -38q-12 11 17 -412h4q13 20 39 62q239 373 205 334q15 54 -66 54l10 39h223l-10 -39q-76 -11 -106 -65l-365 -573h-81l-32 569q2 77 -66 69zM897 524l1 3q-24 12 -43 15q-110 6 -160 -205q42 38 101 41q135 -11 107 -157
q-55 -173 -222 -176q-186 3 -129 240q88 263 299 286q109 -6 96 -87q-21 -59 -78 -62q-48 6 -39 50q11 52 67 52zM774 206q42 146 -10 137q-68 -3 -102 -128q-48 -158 19 -146q28 -5 51 29.5t42 107.5z" />
    <glyph glyph-name="uniE660" unicode="&#xe660;" 
d="M75 686l11 39h326l-10 -39q-96 0 -99 -38q-12 11 17 -412h4q13 20 39 62q239 373 205 334q15 54 -66 54l10 39h223l-10 -39q-76 -11 -106 -65l-365 -573h-81l-32 569q2 77 -66 69zM628 524l321 -3l-13 -51l-19 -19q-160 -152 -200 -333q-20 -75 -76 -73q-57 0 -35 71
q24 100 257 313h-125q-108 0 -141 -94h-27z" />
    <glyph glyph-name="uniE661" unicode="&#xe661;" 
d="M65 686l10 39h327l-10 -39q-96 0 -99 -38q-12 11 17 -412h4q13 20 39 62q238 373 205 334q14 54 -66 54l10 39h223l-10 -39q-77 -11 -106 -65l-365 -573h-81l-32 569q1 77 -66 69zM663 45q-162 3 -140 120q26 85 135 123q-81 35 -52 131q47 135 213 152q152 -11 131 -123
q-27 -78 -123 -108q105 -46 75 -146q-48 -146 -239 -149zM743 232l-43 27h-6q-6 8 -12 8q-56 -23 -77 -90q-25 -105 71 -108q81 8 106 81q16 47 -39 82zM871 448q21 91 -60 94q-72 -6 -92 -70q-26 -64 84 -114q48 26 68 90z" />
    <glyph glyph-name="uniE662" unicode="&#xe662;" 
d="M75 686l11 39h326l-10 -39q-96 0 -99 -38q-12 11 17 -412h4q13 20 39 62q239 373 205 334q15 54 -66 54l10 39h223l-10 -39q-76 -11 -106 -65l-365 -573h-81l-32 569q2 77 -66 69zM577 86l-1 -3q26 -14 55 -14q111 0 151 137l18 67h-3q-46 -41 -99 -41q-135 9 -107 158
q55 169 224 181q173 -11 124 -245q-86 -278 -311 -281q-117 3 -98 82q17 56 75 61q48 -5 42 -49q-15 -56 -70 -53zM723 413q-43 -152 8 -146q62 3 97 111q49 173 -18 164q-54 3 -87 -129z" />
    <glyph glyph-name="uniE663" unicode="&#xe663;" 
d="M75 686l11 39h326l-10 -39q-96 0 -99 -38q-12 11 17 -412h4q13 20 39 62q239 373 205 334q15 54 -66 54l10 39h223l-10 -39q-76 -11 -106 -65l-365 -573h-81l-32 569q2 77 -66 69zM575 48h-183l9 23q65 -4 78 54l92 243q21 37 -36 33l9 25q60 -2 102 35h27l-126 -336
q-31 -58 37 -54zM923 252q-81 -202 -190 -206q-105 4 -33 206q80 200 190 211q102 -9 33 -211zM852 252q72 190 29 188q-41 0 -110 -188q-74 -192 -31 -188q40 -4 112 188z" />
    <glyph glyph-name="uniE664" unicode="&#xe664;" 
d="M682 389h-451q-67 -3 -133 -7q-12 -6 -15 7q-8 7 -7 24q-6 3 -5 6q4 4 11 4q23 -4 82 -7h105h87l61 226h-68q-37 -4 -75 -4q-37 -3 -59 -7q-14 -3 -10 11q-6 3 -10 13q-2 7 -1 10q-6 3 -2 7l11 3q15 -7 69 -7q60 -3 114 -3h54q-15 10 -11 37q2 44 -8 71q-7 10 -3 13
q5 7 23 10q89 4 114 -40q15 -71 -55 -91h101q27 51 55 128q4 17 24 17q68 -20 106 -34q11 -10 8 -20q-7 -13 -21 -13q-18 -7 -31 -17q-22 -21 -80 -61h111q67 74 85 78q42 -17 90 -78q3 -27 -21 -27h-74q-37 4 -127 4h-10q-1 -17 -10 -24q-23 -10 -25 -30l-26 -98
q69 67 101 125q13 23 37 13q41 -33 76 -67q7 -14 1 -24q-10 -10 -22 -6q-17 0 -41 -14q-72 -44 -165 -77l-7 -24h95q68 81 89 81q48 -20 96 -81q1 -34 -22 -30h-77q-40 3 -134 3zM348 322q1 -7 7 -10h229q47 50 65 54q60 -27 97 -78q-2 -20 -22 -30q-17 -14 -20 -27
q-2 -8 -29 -108q-11 -52 -19 -94q-12 -47 -41 -54h-7q-46 -10 -70 -10q-41 -3 -29 30l11 41h-259l-2 -7q-12 -44 -45 -54q-14 -3 -53 -10q-17 0 -21 -3q-44 -4 -24 37q32 104 70 235q14 68 21 101q2 34 34 27q63 -23 107 -40zM243 483q6 74 -6 115q-5 7 -1 10t15 7
q94 -14 119 -71q10 -64 -42 -94q-88 -41 -85 33zM294 160l-26 -97h259l26 97h-259zM587 285h-249q-13 -10 -16 -20l-21 -81h259zM520 588l-46 -172h44l60 226h-23q-2 -17 -14 -24q-19 -10 -21 -30z" />
    <glyph glyph-name="uniE665" unicode="&#xe665;" 
d="M821 705h-725q-8 0 -14 -6t-6 -14v-457q0 -33 24.5 -57t58.5 -24h293q8 0 14 6t6 14.5t-6 14t-14 5.5h-293q-18 0 -30.5 12t-12.5 29v332l182 -101l-123 -158q-5 -6 -4 -14.5t7 -13.5q6 -4 13 -4q9 0 15 8l126 161v2h1l84 -47q4 -2 10 -2q11 0 17 10q4 7 2 15t-10 12
l-320 177v60h685v-80q0 -9 5.5 -14.5t14 -5.5t14 5.5t5.5 14.5v100q0 8 -5.5 14t-13.5 6zM947 252l-56 33q1 10 1 21q0 10 -1 19l56 33q7 4 4 12l-23 57q-3 8 -12 6l-62 -16q-12 15 -29 29l17 62q2 9 -6 12l-57 24q-8 3 -12 -5l-33 -55q-19 2 -40 0l-33 56q-4 7 -12 4
l-57 -23q-8 -4 -6 -12l17 -62q-17 -14 -30 -29l-62 17q-8 2 -12 -6l-23 -57q-4 -8 4 -12l55 -32q-1 -10 -1 -22q0 -7 1 -19l-56 -33q-7 -4 -4 -13l23 -56q4 -9 12 -6l62 17q13 -16 28 -29l-15 -63q-2 -9 5 -12l57 -24q8 -3 12 4l34 56q19 -3 39 0l33 -56q3 -5 9 -5q1 0 4 1
l56 23q8 3 6 12l-16 62q16 12 29 28l63 -16q8 -2 11 6l24 57q3 8 -4 12zM755.5 263.5q-17.5 -17.5 -42.5 -17.5t-42 17.5t-17 42.5t17 42.5t42 17.5t42 -18q18 -17 18 -42t-17.5 -42.5z" />
    <glyph glyph-name="uniE666" unicode="&#xe666;" 
d="M558 262l-142 -37l41 130zM703 315l52 59v-328q0 -38 -24 -63.5t-64 -25.5h-393q-39 0 -63.5 26.5t-24.5 64.5v674q0 38 24 63.5t64 25.5h393q40 0 64 -25.5t24 -63.5v-8l-52 -59v85h-465v-649h465v224zM390 762h160v25h-160v-25zM513 22q0 16 -12 27.5t-30 11.5
t-30 -11.5t-12 -27.5t12 -27.5t30 -11.5t30 11.5t12 27.5zM470 368l102 -93l224 204l-102 93zM843 557l-64 58q-7 7 -19 7t-20 -8l-31 -28l102 -93l31 29q8 7 8.5 17.5t-7.5 17.5z" />
    <glyph glyph-name="uniE667" unicode="&#xe667;" 
d="M791 10h-620q-39 0 -66.5 27.5t-27.5 65.5v562q0 38 27.5 65.5t65.5 27.5h624q38 0 65.5 -27.5t27.5 -65.5v-92q0 -12 -9 -21.5t-22 -9.5t-22 9t-9 22v92q0 12 -9 21.5t-22 9.5h-624q-12 0 -21.5 -9.5t-9.5 -21.5v-562q0 -12 9.5 -21.5t21.5 -9.5h621q13 0 22 9.5t9 21.5
v96q0 13 9 22t22 9t22 -9t9 -22v-96q0 -38 -27.5 -65.5t-65.5 -27.5zM627 385q0 13 8.5 21.5t21.5 8.5t21.5 -8.5t8.5 -21.5t-8.5 -21.5t-21.5 -8.5t-21.5 8.5t-8.5 21.5zM885 263h-311q-26 0 -44 18t-18 44v124q0 26 18 44t44 18h311q25 0 43.5 -18t18.5 -44v-124
q0 -26 -18.5 -44t-43.5 -18zM574 449v-124h311v124h-311z" />
    </font>
</defs>
</svg>
